<svg xmlns="http://www.w3.org/2000/svg" xmlns:xlink="http://www.w3.org/1999/xlink" width="500" zoomAndPan="magnify" viewBox="0 0 375 225" height="300" preserveAspectRatio="xMidYMid meet"><defs><g></g><clipPath id="e9c595da17"><path d="M 143.535156 133.054688 L 151.691406 133.054688 L 151.691406 155.710938 L 143.535156 155.710938 Z M 143.535156 133.054688 " clip-rule="nonzero"></path></clipPath><clipPath id="4af36daf5c"><path d="M 0.535156 0.0546875 L 8.691406 0.0546875 L 8.691406 22.710938 L 0.535156 22.710938 Z M 0.535156 0.0546875 " clip-rule="nonzero"></path></clipPath><clipPath id="d92b539c8d"><rect x="0" width="9" y="0" height="23"></rect></clipPath><clipPath id="ef198810f4"><path d="M 0.601562 0 L 351.71875 0 L 351.71875 225 L 0.601562 225 Z M 0.601562 0 " clip-rule="nonzero"></path></clipPath><clipPath id="558481a8f7"><rect x="0" width="352" y="0" height="225"></rect></clipPath><clipPath id="830b62f283"><rect x="0" width="337" y="0" height="37"></rect></clipPath><clipPath id="e34735afd7"><rect x="0" width="352" y="0" height="225"></rect></clipPath></defs><g transform="matrix(1, 0, 0, 1, 9, -0.000000000000008531)"><g clip-path="url(#e34735afd7)"><g clip-path="url(#e9c595da17)"><g transform="matrix(1, 0, 0, 1, 143, 133)"><g clip-path="url(#d92b539c8d)"><g clip-path="url(#4af36daf5c)"><path fill="#ffffff" d="M 0.535156 0.0546875 L 8.691406 0.0546875 L 8.691406 22.714844 L 0.535156 22.714844 Z M 0.535156 0.0546875 " fill-opacity="1" fill-rule="nonzero"></path></g></g></g></g><g clip-path="url(#ef198810f4)"><g transform="matrix(1, 0, 0, 1, 0, -0.000000000000008531)"><g clip-path="url(#558481a8f7)"><g fill="#222222" fill-opacity="1"><g transform="translate(0.699454, 157.724713)"><g><path d="M 29.171875 1.125 C 27.035156 1.125 25.117188 0.53125 23.421875 -0.65625 C 21.734375 -1.851562 19.945312 -3.015625 18.0625 -4.140625 C 13.925781 -6.523438 10.726562 -9.660156 8.46875 -13.546875 C 6.207031 -17.441406 5.078125 -22.210938 5.078125 -27.859375 C 5.078125 -30.609375 5.546875 -33.894531 6.484375 -37.71875 C 7.429688 -41.550781 8.28125 -45.097656 9.03125 -48.359375 C 9.40625 -49.742188 10.28125 -51.660156 11.65625 -54.109375 C 13.039062 -56.554688 14.769531 -58.9375 16.84375 -61.25 C 18.914062 -63.570312 21.269531 -65.609375 23.90625 -67.359375 C 26.539062 -69.117188 29.234375 -70 31.984375 -70 C 33.117188 -70 34.25 -69.625 35.375 -68.875 C 37.132812 -67.75 38.953125 -66.804688 40.828125 -66.046875 C 42.710938 -65.296875 44.628906 -64.546875 46.578125 -63.796875 C 48.523438 -63.046875 50.4375 -62.226562 52.3125 -61.34375 C 54.195312 -60.46875 55.953125 -59.34375 57.578125 -57.96875 C 58.960938 -56.832031 60.03125 -55.445312 60.78125 -53.8125 C 61.53125 -52.1875 62.285156 -50.617188 63.046875 -49.109375 C 63.671875 -47.859375 64.046875 -46.570312 64.171875 -45.25 C 64.296875 -43.9375 64.359375 -42.59375 64.359375 -41.21875 L 64.359375 -37.640625 C 64.234375 -33.742188 63.445312 -30.132812 62 -26.8125 C 60.5625 -23.488281 58.835938 -20.257812 56.828125 -17.125 C 55.828125 -15.488281 54.507812 -13.601562 52.875 -11.46875 C 51.25 -9.34375 49.429688 -7.335938 47.421875 -5.453125 C 45.410156 -3.578125 43.304688 -1.976562 41.109375 -0.65625 C 38.921875 0.65625 36.695312 1.3125 34.4375 1.3125 C 33.8125 1.3125 33.148438 1.28125 32.453125 1.21875 C 31.765625 1.15625 31.046875 1.125 30.296875 1.125 Z M 47.609375 -43.84375 C 47.609375 -47.488281 46.289062 -50.125 43.65625 -51.75 C 41.019531 -53.382812 38.132812 -54.203125 35 -54.203125 C 32.488281 -54.203125 30.351562 -53.226562 28.59375 -51.28125 C 26.84375 -49.332031 25.335938 -46.945312 24.078125 -44.125 C 22.828125 -41.300781 21.921875 -38.289062 21.359375 -35.09375 C 20.796875 -31.894531 20.515625 -29.101562 20.515625 -26.71875 C 20.515625 -26.21875 20.609375 -25.210938 20.796875 -23.703125 C 20.984375 -22.203125 21.328125 -20.632812 21.828125 -19 C 22.328125 -17.375 23.046875 -15.929688 23.984375 -14.671875 C 24.929688 -13.421875 26.15625 -12.796875 27.65625 -12.796875 C 29.039062 -12.796875 30.296875 -13.015625 31.421875 -13.453125 C 32.554688 -13.890625 33.8125 -14.425781 35.1875 -15.0625 C 37.195312 -16.3125 38.953125 -18 40.453125 -20.125 C 41.960938 -22.257812 43.1875 -24.582031 44.125 -27.09375 C 45.070312 -29.601562 45.828125 -32.238281 46.390625 -35 C 46.953125 -37.757812 47.359375 -40.394531 47.609375 -42.90625 Z M 47.609375 -43.84375 "></path></g></g></g><g fill="#222222" fill-opacity="1"><g transform="translate(68.630982, 157.724713)"><g><path d="M 25.21875 -26.71875 C 26.976562 -28.476562 28.390625 -30.738281 29.453125 -33.5 C 30.515625 -36.257812 31.550781 -38.894531 32.5625 -41.40625 L 32.9375 -42.53125 C 33.6875 -44.539062 34.8125 -47.019531 36.3125 -49.96875 C 37.820312 -52.914062 39.578125 -55.738281 41.578125 -58.4375 C 43.585938 -61.132812 45.785156 -63.421875 48.171875 -65.296875 C 50.554688 -67.179688 53.003906 -68.125 55.515625 -68.125 C 57.648438 -67.5 59.25 -66.492188 60.3125 -65.109375 C 61.375 -63.734375 62.1875 -62.195312 62.75 -60.5 C 63.320312 -58.8125 63.828125 -57.054688 64.265625 -55.234375 C 64.703125 -53.410156 65.296875 -51.6875 66.046875 -50.0625 C 67.679688 -46.414062 68.90625 -42.523438 69.71875 -38.390625 C 70.539062 -34.253906 71.234375 -30.050781 71.796875 -25.78125 C 72.359375 -21.519531 73.015625 -17.316406 73.765625 -13.171875 C 74.523438 -9.035156 75.65625 -5.207031 77.15625 -1.6875 C 76.90625 0.3125 75.804688 1.78125 73.859375 2.71875 C 71.921875 3.664062 70.195312 4.140625 68.6875 4.140625 C 66.425781 4.140625 64.664062 3.289062 63.40625 1.59375 C 62.15625 -0.09375 61.1875 -2.160156 60.5 -4.609375 C 59.8125 -7.054688 59.3125 -9.597656 59 -12.234375 C 58.6875 -14.867188 58.28125 -17.0625 57.78125 -18.8125 C 57.144531 -20.945312 56.640625 -23.363281 56.265625 -26.0625 C 55.890625 -28.757812 55.453125 -31.488281 54.953125 -34.25 C 54.453125 -37.007812 53.851562 -39.582031 53.15625 -41.96875 C 52.46875 -44.351562 51.5 -46.296875 50.25 -47.796875 C 48.113281 -44.410156 46.382812 -41.242188 45.0625 -38.296875 C 43.75 -35.347656 42.554688 -32.523438 41.484375 -29.828125 C 40.421875 -27.128906 39.390625 -24.492188 38.390625 -21.921875 C 37.390625 -19.347656 36.132812 -16.742188 34.625 -14.109375 C 32.613281 -10.472656 30.789062 -7.648438 29.15625 -5.640625 C 27.53125 -3.640625 26.023438 -2.164062 24.640625 -1.21875 C 23.265625 -0.28125 21.945312 0.28125 20.6875 0.46875 C 19.4375 0.65625 18.25 0.75 17.125 0.75 C 15.875 0.75 14.335938 0.125 12.515625 -1.125 C 10.691406 -2.382812 9.78125 -3.890625 9.78125 -5.640625 C 9.78125 -13.546875 9.8125 -20.882812 9.875 -27.65625 C 9.9375 -34.4375 9.96875 -41.585938 9.96875 -49.109375 C 9.96875 -51.242188 9.90625 -53.410156 9.78125 -55.609375 C 9.65625 -57.804688 9.59375 -59.972656 9.59375 -62.109375 C 9.59375 -63.609375 9.875 -65.078125 10.4375 -66.515625 C 11.007812 -67.960938 11.984375 -69 13.359375 -69.625 C 14.109375 -69.625 14.859375 -69.65625 15.609375 -69.71875 C 16.367188 -69.78125 17.0625 -69.8125 17.6875 -69.8125 C 19.320312 -69.8125 20.609375 -69.34375 21.546875 -68.40625 C 22.484375 -67.46875 23.171875 -66.304688 23.609375 -64.921875 C 24.054688 -63.546875 24.34375 -62.101562 24.46875 -60.59375 C 24.59375 -59.09375 24.65625 -57.835938 24.65625 -56.828125 C 24.65625 -55.453125 24.8125 -54.132812 25.125 -52.875 C 25.4375 -51.625 25.59375 -50.304688 25.59375 -48.921875 C 25.59375 -44.285156 25.53125 -40.335938 25.40625 -37.078125 C 25.28125 -33.816406 25.21875 -30.675781 25.21875 -27.65625 Z M 25.21875 -26.71875 "></path></g></g></g><g fill="#222222" fill-opacity="1"><g transform="translate(148.793944, 157.724713)"><g><path d="M 6.390625 -31.234375 C 6.390625 -35.878906 6.984375 -40.550781 8.171875 -45.25 C 9.367188 -49.957031 11.160156 -54.191406 13.546875 -57.953125 C 15.929688 -61.722656 18.878906 -64.769531 22.390625 -67.09375 C 25.898438 -69.414062 29.976562 -70.578125 34.625 -70.578125 C 37.882812 -70.578125 40.738281 -70.070312 43.1875 -69.0625 C 45.632812 -68.0625 47.671875 -66.742188 49.296875 -65.109375 C 50.929688 -63.484375 52.15625 -61.632812 52.96875 -59.5625 C 53.789062 -57.488281 54.203125 -55.320312 54.203125 -53.0625 C 54.203125 -50.175781 53.664062 -47.382812 52.59375 -44.6875 C 51.53125 -42 49.992188 -39.585938 47.984375 -37.453125 C 45.984375 -35.316406 43.503906 -33.585938 40.546875 -32.265625 C 37.597656 -30.953125 34.242188 -30.234375 30.484375 -30.109375 C 28.859375 -29.984375 27.414062 -30.046875 26.15625 -30.296875 C 24.90625 -30.546875 23.460938 -30.921875 21.828125 -31.421875 C 21.703125 -30.796875 21.640625 -30.265625 21.640625 -29.828125 C 21.640625 -29.390625 21.640625 -29.046875 21.640625 -28.796875 C 21.765625 -24.148438 22.515625 -20.507812 23.890625 -17.875 C 25.273438 -15.238281 26.78125 -13.257812 28.40625 -11.9375 C 30.039062 -10.625 31.609375 -9.78125 33.109375 -9.40625 C 34.617188 -9.03125 35.625 -8.84375 36.125 -8.84375 C 40.019531 -8.84375 43.253906 -9.71875 45.828125 -11.46875 C 48.398438 -13.226562 51.253906 -15.175781 54.390625 -17.3125 C 55.015625 -17.0625 55.703125 -16.78125 56.453125 -16.46875 C 57.203125 -16.15625 57.894531 -15.554688 58.53125 -14.671875 C 58.65625 -13.921875 58.78125 -13.328125 58.90625 -12.890625 C 59.03125 -12.453125 59.09375 -11.796875 59.09375 -10.921875 C 58.96875 -9.160156 58.492188 -7.679688 57.671875 -6.484375 C 56.859375 -5.296875 55.953125 -4.265625 54.953125 -3.390625 C 51.691406 -0.628906 48.648438 1.15625 45.828125 1.96875 C 43.003906 2.789062 39.332031 3.203125 34.8125 3.203125 C 32.800781 3.203125 30.320312 2.757812 27.375 1.875 C 24.425781 1 21.953125 0.0625 19.953125 -0.9375 C 16.941406 -3.195312 14.585938 -5.457031 12.890625 -7.71875 C 11.191406 -9.976562 9.875 -12.359375 8.9375 -14.859375 C 8 -17.367188 7.375 -19.972656 7.0625 -22.671875 C 6.75 -25.367188 6.523438 -28.222656 6.390625 -31.234375 Z M 22.765625 -41.40625 C 23.273438 -41.28125 24.0625 -41.1875 25.125 -41.125 C 26.1875 -41.0625 27.03125 -41.03125 27.65625 -41.03125 C 31.925781 -41.03125 35.222656 -42.09375 37.546875 -44.21875 C 39.867188 -46.351562 41.03125 -48.925781 41.03125 -51.9375 C 41.03125 -53.695312 40.523438 -55.328125 39.515625 -56.828125 C 38.515625 -58.335938 37.132812 -59.09375 35.375 -59.09375 C 34.125 -59.09375 32.898438 -58.96875 31.703125 -58.71875 C 30.515625 -58.46875 29.609375 -57.835938 28.984375 -56.828125 C 28.484375 -56.203125 27.914062 -55.578125 27.28125 -54.953125 C 26.65625 -54.328125 26.0625 -53.445312 25.5 -52.3125 C 24.9375 -51.1875 24.398438 -49.773438 23.890625 -48.078125 C 23.390625 -46.390625 23.015625 -44.164062 22.765625 -41.40625 Z M 22.765625 -41.40625 "></path></g></g></g><g fill="#ea5a1a" fill-opacity="1"><g transform="translate(209.581868, 157.724713)"><g><path d="M 53.828125 -2.828125 C 50.816406 -3.453125 48.523438 -4.609375 46.953125 -6.296875 C 45.378906 -7.992188 43.78125 -10.222656 42.15625 -12.984375 C 41.15625 -14.742188 40.148438 -17.003906 39.140625 -19.765625 C 38.140625 -22.523438 37.132812 -25.847656 36.125 -29.734375 C 35.125 -34.117188 34.117188 -38.507812 33.109375 -42.90625 C 32.109375 -47.300781 31.359375 -50.625 30.859375 -52.875 C 29.484375 -46.226562 28.039062 -39.738281 26.53125 -33.40625 C 25.03125 -27.070312 23.523438 -21.082031 22.015625 -15.4375 C 20.515625 -9.789062 19.007812 -4.613281 17.5 0.09375 C 16 4.800781 14.492188 8.785156 12.984375 12.046875 C 12.609375 12.921875 11.789062 13.359375 10.53125 13.359375 C 9.15625 13.359375 7.335938 12.796875 5.078125 11.671875 C 3.328125 10.785156 2.101562 9.71875 1.40625 8.46875 C 0.71875 7.21875 0.375 5.773438 0.375 4.140625 C 0.375 3.140625 1.691406 -0.875 4.328125 -7.90625 C 4.953125 -9.40625 6.332031 -13.726562 8.46875 -20.875 C 10.601562 -28.03125 13.613281 -38.195312 17.5 -51.375 C 18.882812 -55.894531 20.265625 -62.101562 21.640625 -70 C 23.023438 -77.90625 24.40625 -87.566406 25.78125 -98.984375 C 26.03125 -99.234375 26.65625 -100.550781 27.65625 -102.9375 C 28.289062 -104.695312 29.421875 -105.578125 31.046875 -105.578125 C 35.691406 -105.578125 38.828125 -104.757812 40.453125 -103.125 C 40.453125 -101.363281 40.453125 -98.976562 40.453125 -95.96875 C 40.453125 -92.957031 40.707031 -89.445312 41.21875 -85.4375 C 41.71875 -81.425781 42.09375 -77.910156 42.34375 -74.890625 C 42.59375 -71.878906 42.71875 -69.3125 42.71875 -67.1875 C 43.09375 -62.664062 43.71875 -58.867188 44.59375 -55.796875 C 45.476562 -52.722656 46.234375 -49.429688 46.859375 -45.921875 C 48.234375 -37.515625 50.679688 -30.800781 54.203125 -25.78125 C 60.222656 -42.59375 65.144531 -57.613281 68.96875 -70.84375 C 72.789062 -84.082031 75.519531 -95.660156 77.15625 -105.578125 C 77.65625 -107.578125 79.535156 -108.578125 82.796875 -108.578125 C 87.441406 -108.578125 90.078125 -107.070312 90.703125 -104.0625 C 91.585938 -100.050781 92.03125 -94.847656 92.03125 -88.453125 C 92.03125 -87.441406 91.992188 -85.929688 91.921875 -83.921875 C 91.859375 -81.921875 91.765625 -79.289062 91.640625 -76.03125 C 91.515625 -74.644531 91.453125 -73.390625 91.453125 -72.265625 C 91.453125 -71.140625 91.453125 -70.070312 91.453125 -69.0625 C 91.453125 -68.0625 91.453125 -67.054688 91.453125 -66.046875 C 91.453125 -65.046875 91.515625 -64.171875 91.640625 -63.421875 C 92.773438 -36.828125 95.222656 -14.617188 98.984375 3.203125 C 98.984375 3.453125 99.015625 3.609375 99.078125 3.671875 C 99.140625 3.734375 99.171875 3.828125 99.171875 3.953125 C 99.171875 6.085938 97.101562 7.21875 92.96875 7.34375 C 90.457031 7.34375 87.820312 6.148438 85.0625 3.765625 C 82.550781 1.628906 80.671875 -1.820312 79.421875 -6.59375 C 78.035156 -10.851562 77.28125 -17.0625 77.15625 -25.21875 C 77.15625 -27.476562 77.15625 -30.050781 77.15625 -32.9375 C 77.15625 -35.820312 77.125 -38.613281 77.0625 -41.3125 C 77 -44.007812 76.9375 -46.453125 76.875 -48.640625 C 76.8125 -50.835938 76.71875 -52.4375 76.59375 -53.4375 C 76.21875 -52.0625 75.585938 -49.992188 74.703125 -47.234375 C 73.828125 -44.472656 72.851562 -41.429688 71.78125 -38.109375 C 70.71875 -34.785156 69.625 -31.394531 68.5 -27.9375 C 67.375 -24.488281 66.367188 -21.382812 65.484375 -18.625 C 63.234375 -12.476562 61.851562 -8.96875 61.34375 -8.09375 C 59.46875 -4.582031 57.210938 -2.828125 54.578125 -2.828125 Z M 53.828125 -2.828125 "></path></g></g></g><g fill="#ea5a1a" fill-opacity="1"><g transform="translate(314.960426, 157.724713)"><g><path d="M 12.609375 -110.46875 C 13.234375 -111.09375 14.363281 -111.40625 16 -111.40625 C 17.25 -111.40625 18.53125 -111.1875 19.84375 -110.75 C 21.164062 -110.3125 22.390625 -109.679688 23.515625 -108.859375 C 24.648438 -108.046875 25.5625 -107.132812 26.25 -106.125 C 26.9375 -105.125 27.28125 -104.0625 27.28125 -102.9375 C 27.28125 -100.550781 26.6875 -98.953125 25.5 -98.140625 C 24.3125 -97.328125 22.648438 -96.921875 20.515625 -96.921875 C 19.128906 -96.921875 17.710938 -97.140625 16.265625 -97.578125 C 14.828125 -98.015625 13.546875 -98.546875 12.421875 -99.171875 C 11.296875 -99.796875 10.382812 -100.453125 9.6875 -101.140625 C 9 -101.835938 8.65625 -102.5 8.65625 -103.125 C 8.65625 -104.632812 8.8125 -105.953125 9.125 -107.078125 C 9.4375 -108.203125 10.597656 -109.332031 12.609375 -110.46875 Z M 29.171875 -4.515625 C 29.171875 -3.515625 28.914062 -2.507812 28.40625 -1.5 C 27.90625 -0.5 26.96875 0.6875 25.59375 2.0625 C 23.457031 2.0625 21.476562 1.875 19.65625 1.5 C 17.84375 1.125 16.273438 0.375 14.953125 -0.75 C 13.640625 -1.882812 12.609375 -3.515625 11.859375 -5.640625 C 11.109375 -7.773438 10.734375 -10.660156 10.734375 -14.296875 C 10.734375 -16.429688 10.507812 -18.566406 10.0625 -20.703125 C 9.625 -22.835938 9.40625 -24.96875 9.40625 -27.09375 C 9.40625 -33.5 9.03125 -39.585938 8.28125 -45.359375 C 7.53125 -51.128906 7.15625 -57.210938 7.15625 -63.609375 C 7.15625 -66.242188 8.21875 -68.25 10.34375 -69.625 C 11.601562 -70 12.796875 -70.28125 13.921875 -70.46875 C 15.054688 -70.664062 16.3125 -70.890625 17.6875 -71.140625 C 19.445312 -70.628906 20.765625 -69.90625 21.640625 -68.96875 C 22.515625 -68.03125 23.332031 -67.117188 24.09375 -66.234375 C 23.96875 -64.984375 23.875 -63.726562 23.8125 -62.46875 C 23.75 -61.21875 23.71875 -59.90625 23.71875 -58.53125 C 23.71875 -53.757812 23.96875 -48.675781 24.46875 -43.28125 C 24.96875 -37.882812 25.53125 -32.738281 26.15625 -27.84375 C 26.78125 -22.957031 27.375 -18.503906 27.9375 -14.484375 C 28.507812 -10.472656 28.921875 -7.398438 29.171875 -5.265625 Z M 29.171875 -4.515625 "></path></g></g></g></g></g></g><g transform="matrix(1, 0, 0, 1, 12, 181)"><g clip-path="url(#830b62f283)"><g fill="#252525" fill-opacity="1"><g transform="translate(0.943759, 28.129551)"><g><path d="M 21.03125 0 L 21.015625 -13.25 L 14.4375 -2.28125 L 12.78125 -2.28125 L 6.21875 -13.078125 L 6.21875 0 L 2.6875 0 L 2.6875 -19.984375 L 5.734375 -19.984375 L 13.671875 -6.734375 L 21.46875 -19.984375 L 24.515625 -19.984375 L 24.546875 0 Z M 21.03125 0 "></path></g></g></g><g fill="#252525" fill-opacity="1"><g transform="translate(28.197708, 28.129551)"><g><path d="M 16.609375 -15.25 L 9.484375 1.234375 C 8.816406 2.890625 8.003906 4.050781 7.046875 4.71875 C 6.097656 5.394531 4.945312 5.734375 3.59375 5.734375 C 2.832031 5.734375 2.082031 5.609375 1.34375 5.359375 C 0.601562 5.117188 -0.00390625 4.78125 -0.484375 4.34375 L 0.9375 1.71875 C 1.28125 2.039062 1.6875 2.296875 2.15625 2.484375 C 2.625 2.671875 3.09375 2.765625 3.5625 2.765625 C 4.195312 2.765625 4.71875 2.601562 5.125 2.28125 C 5.53125 1.957031 5.90625 1.414062 6.25 0.65625 L 6.515625 0.0625 L -0.140625 -15.25 L 3.5625 -15.25 L 8.359375 -3.96875 L 13.1875 -15.25 Z M 16.609375 -15.25 "></path></g></g></g><g fill="#252525" fill-opacity="1"><g transform="translate(44.692765, 28.129551)"><g></g></g></g><g fill="#252525" fill-opacity="1"><g transform="translate(52.569305, 28.129551)"><g><path d="M 10.984375 -15.421875 C 12.910156 -15.421875 14.453125 -14.859375 15.609375 -13.734375 C 16.773438 -12.609375 17.359375 -10.941406 17.359375 -8.734375 L 17.359375 0 L 13.78125 0 L 13.78125 -8.28125 C 13.78125 -9.613281 13.46875 -10.613281 12.84375 -11.28125 C 12.21875 -11.957031 11.320312 -12.296875 10.15625 -12.296875 C 8.84375 -12.296875 7.804688 -11.898438 7.046875 -11.109375 C 6.285156 -10.328125 5.90625 -9.191406 5.90625 -7.703125 L 5.90625 0 L 2.34375 0 L 2.34375 -21.1875 L 5.90625 -21.1875 L 5.90625 -13.46875 C 6.5 -14.101562 7.226562 -14.585938 8.09375 -14.921875 C 8.957031 -15.253906 9.921875 -15.421875 10.984375 -15.421875 Z M 10.984375 -15.421875 "></path></g></g></g><g fill="#252525" fill-opacity="1"><g transform="translate(72.260694, 28.129551)"><g><path d="M 16.671875 -7.53125 C 16.671875 -7.289062 16.648438 -6.941406 16.609375 -6.484375 L 4.65625 -6.484375 C 4.863281 -5.359375 5.410156 -4.46875 6.296875 -3.8125 C 7.179688 -3.15625 8.28125 -2.828125 9.59375 -2.828125 C 11.269531 -2.828125 12.648438 -3.378906 13.734375 -4.484375 L 15.640625 -2.28125 C 14.953125 -1.46875 14.082031 -0.847656 13.03125 -0.421875 C 11.988281 -0.00390625 10.8125 0.203125 9.5 0.203125 C 7.832031 0.203125 6.359375 -0.128906 5.078125 -0.796875 C 3.804688 -1.460938 2.820312 -2.390625 2.125 -3.578125 C 1.425781 -4.765625 1.078125 -6.113281 1.078125 -7.625 C 1.078125 -9.101562 1.414062 -10.4375 2.09375 -11.625 C 2.769531 -12.820312 3.707031 -13.753906 4.90625 -14.421875 C 6.101562 -15.085938 7.457031 -15.421875 8.96875 -15.421875 C 10.445312 -15.421875 11.769531 -15.09375 12.9375 -14.4375 C 14.113281 -13.78125 15.03125 -12.851562 15.6875 -11.65625 C 16.34375 -10.46875 16.671875 -9.09375 16.671875 -7.53125 Z M 8.96875 -12.5625 C 7.820312 -12.5625 6.851562 -12.222656 6.0625 -11.546875 C 5.269531 -10.867188 4.789062 -9.96875 4.625 -8.84375 L 13.28125 -8.84375 C 13.125 -9.945312 12.65625 -10.84375 11.875 -11.53125 C 11.09375 -12.21875 10.125 -12.5625 8.96875 -12.5625 Z M 8.96875 -12.5625 "></path></g></g></g><g fill="#252525" fill-opacity="1"><g transform="translate(89.583199, 28.129551)"><g><path d="M 8.171875 -15.421875 C 10.410156 -15.421875 12.125 -14.878906 13.3125 -13.796875 C 14.5 -12.722656 15.09375 -11.101562 15.09375 -8.9375 L 15.09375 0 L 11.734375 0 L 11.734375 -1.859375 C 11.296875 -1.191406 10.671875 -0.679688 9.859375 -0.328125 C 9.054688 0.0234375 8.082031 0.203125 6.9375 0.203125 C 5.789062 0.203125 4.789062 0.0078125 3.9375 -0.375 C 3.082031 -0.769531 2.421875 -1.3125 1.953125 -2 C 1.484375 -2.695312 1.25 -3.488281 1.25 -4.375 C 1.25 -5.738281 1.757812 -6.832031 2.78125 -7.65625 C 3.800781 -8.488281 5.40625 -8.90625 7.59375 -8.90625 L 11.53125 -8.90625 L 11.53125 -9.140625 C 11.53125 -10.203125 11.210938 -11.019531 10.578125 -11.59375 C 9.941406 -12.164062 8.992188 -12.453125 7.734375 -12.453125 C 6.878906 -12.453125 6.035156 -12.316406 5.203125 -12.046875 C 4.378906 -11.773438 3.679688 -11.40625 3.109375 -10.9375 L 1.71875 -13.53125 C 2.507812 -14.132812 3.46875 -14.597656 4.59375 -14.921875 C 5.71875 -15.253906 6.910156 -15.421875 8.171875 -15.421875 Z M 7.671875 -2.390625 C 8.566406 -2.390625 9.363281 -2.59375 10.0625 -3 C 10.757812 -3.414062 11.25 -4.003906 11.53125 -4.765625 L 11.53125 -6.53125 L 7.84375 -6.53125 C 5.789062 -6.53125 4.765625 -5.859375 4.765625 -4.515625 C 4.765625 -3.867188 5.019531 -3.351562 5.53125 -2.96875 C 6.050781 -2.582031 6.765625 -2.390625 7.671875 -2.390625 Z M 7.671875 -2.390625 "></path></g></g></g><g fill="#252525" fill-opacity="1"><g transform="translate(106.905873, 28.129551)"><g><path d="M 2.34375 -21.1875 L 5.90625 -21.1875 L 5.90625 0 L 2.34375 0 Z M 2.34375 -21.1875 "></path></g></g></g><g fill="#252525" fill-opacity="1"><g transform="translate(115.895683, 28.129551)"><g><path d="M 11.5 -0.828125 C 11.082031 -0.484375 10.570312 -0.222656 9.96875 -0.046875 C 9.375 0.117188 8.742188 0.203125 8.078125 0.203125 C 6.398438 0.203125 5.101562 -0.234375 4.1875 -1.109375 C 3.28125 -1.984375 2.828125 -3.257812 2.828125 -4.9375 L 2.828125 -12.28125 L 0.3125 -12.28125 L 0.3125 -15.125 L 2.828125 -15.125 L 2.828125 -18.609375 L 6.390625 -18.609375 L 6.390625 -15.125 L 10.484375 -15.125 L 10.484375 -12.28125 L 6.390625 -12.28125 L 6.390625 -5.03125 C 6.390625 -4.28125 6.570312 -3.707031 6.9375 -3.3125 C 7.300781 -2.925781 7.820312 -2.734375 8.5 -2.734375 C 9.300781 -2.734375 9.96875 -2.945312 10.5 -3.375 Z M 11.5 -0.828125 "></path></g></g></g><g fill="#252525" fill-opacity="1"><g transform="translate(127.995862, 28.129551)"><g><path d="M 10.984375 -15.421875 C 12.910156 -15.421875 14.453125 -14.859375 15.609375 -13.734375 C 16.773438 -12.609375 17.359375 -10.941406 17.359375 -8.734375 L 17.359375 0 L 13.78125 0 L 13.78125 -8.28125 C 13.78125 -9.613281 13.46875 -10.613281 12.84375 -11.28125 C 12.21875 -11.957031 11.320312 -12.296875 10.15625 -12.296875 C 8.84375 -12.296875 7.804688 -11.898438 7.046875 -11.109375 C 6.285156 -10.328125 5.90625 -9.191406 5.90625 -7.703125 L 5.90625 0 L 2.34375 0 L 2.34375 -21.1875 L 5.90625 -21.1875 L 5.90625 -13.46875 C 6.5 -14.101562 7.226562 -14.585938 8.09375 -14.921875 C 8.957031 -15.253906 9.921875 -15.421875 10.984375 -15.421875 Z M 10.984375 -15.421875 "></path></g></g></g><g fill="#252525" fill-opacity="1"><g transform="translate(147.54451, 28.129551)"><g></g></g></g><g fill="#252525" fill-opacity="1"><g transform="translate(155.42105, 28.129551)"><g><path d="M 2.34375 -15.25 L 5.90625 -15.25 L 5.90625 0 L 2.34375 0 Z M 4.140625 -17.75 C 3.492188 -17.75 2.953125 -17.953125 2.515625 -18.359375 C 2.078125 -18.773438 1.859375 -19.285156 1.859375 -19.890625 C 1.859375 -20.503906 2.078125 -21.015625 2.515625 -21.421875 C 2.953125 -21.828125 3.492188 -22.03125 4.140625 -22.03125 C 4.785156 -22.03125 5.328125 -21.835938 5.765625 -21.453125 C 6.203125 -21.066406 6.421875 -20.578125 6.421875 -19.984375 C 6.421875 -19.359375 6.207031 -18.828125 5.78125 -18.390625 C 5.351562 -17.960938 4.804688 -17.75 4.140625 -17.75 Z M 4.140625 -17.75 "></path></g></g></g><g fill="#252525" fill-opacity="1"><g transform="translate(163.668578, 28.129551)"><g><path d="M 10.984375 -15.421875 C 12.910156 -15.421875 14.453125 -14.859375 15.609375 -13.734375 C 16.773438 -12.609375 17.359375 -10.941406 17.359375 -8.734375 L 17.359375 0 L 13.78125 0 L 13.78125 -8.28125 C 13.78125 -9.613281 13.46875 -10.613281 12.84375 -11.28125 C 12.21875 -11.957031 11.320312 -12.296875 10.15625 -12.296875 C 8.84375 -12.296875 7.804688 -11.898438 7.046875 -11.109375 C 6.285156 -10.328125 5.90625 -9.191406 5.90625 -7.703125 L 5.90625 0 L 2.34375 0 L 2.34375 -15.25 L 5.734375 -15.25 L 5.734375 -13.28125 C 6.328125 -13.976562 7.070312 -14.507812 7.96875 -14.875 C 8.863281 -15.238281 9.867188 -15.421875 10.984375 -15.421875 Z M 10.984375 -15.421875 "></path></g></g></g><g fill="#252525" fill-opacity="1"><g transform="translate(183.217225, 28.129551)"><g></g></g></g><g fill="#252525" fill-opacity="1"><g transform="translate(191.093765, 28.129551)"><g><path d="M 21.578125 -15.421875 C 23.503906 -15.421875 25.023438 -14.863281 26.140625 -13.75 C 27.265625 -12.632812 27.828125 -10.960938 27.828125 -8.734375 L 27.828125 0 L 24.265625 0 L 24.265625 -8.28125 C 24.265625 -9.613281 23.96875 -10.613281 23.375 -11.28125 C 22.789062 -11.957031 21.945312 -12.296875 20.84375 -12.296875 C 19.644531 -12.296875 18.679688 -11.898438 17.953125 -11.109375 C 17.234375 -10.328125 16.875 -9.203125 16.875 -7.734375 L 16.875 0 L 13.296875 0 L 13.296875 -8.28125 C 13.296875 -9.613281 13 -10.613281 12.40625 -11.28125 C 11.820312 -11.957031 10.976562 -12.296875 9.875 -12.296875 C 8.65625 -12.296875 7.6875 -11.90625 6.96875 -11.125 C 6.257812 -10.351562 5.90625 -9.222656 5.90625 -7.734375 L 5.90625 0 L 2.34375 0 L 2.34375 -15.25 L 5.734375 -15.25 L 5.734375 -13.296875 C 6.304688 -13.984375 7.019531 -14.507812 7.875 -14.875 C 8.726562 -15.238281 9.679688 -15.421875 10.734375 -15.421875 C 11.878906 -15.421875 12.890625 -15.203125 13.765625 -14.765625 C 14.648438 -14.335938 15.351562 -13.707031 15.875 -12.875 C 16.5 -13.675781 17.304688 -14.300781 18.296875 -14.75 C 19.285156 -15.195312 20.378906 -15.421875 21.578125 -15.421875 Z M 21.578125 -15.421875 "></path></g></g></g><g fill="#252525" fill-opacity="1"><g transform="translate(220.858957, 28.129551)"><g><path d="M 16.609375 -15.25 L 9.484375 1.234375 C 8.816406 2.890625 8.003906 4.050781 7.046875 4.71875 C 6.097656 5.394531 4.945312 5.734375 3.59375 5.734375 C 2.832031 5.734375 2.082031 5.609375 1.34375 5.359375 C 0.601562 5.117188 -0.00390625 4.78125 -0.484375 4.34375 L 0.9375 1.71875 C 1.28125 2.039062 1.6875 2.296875 2.15625 2.484375 C 2.625 2.671875 3.09375 2.765625 3.5625 2.765625 C 4.195312 2.765625 4.71875 2.601562 5.125 2.28125 C 5.53125 1.957031 5.90625 1.414062 6.25 0.65625 L 6.515625 0.0625 L -0.140625 -15.25 L 3.5625 -15.25 L 8.359375 -3.96875 L 13.1875 -15.25 Z M 16.609375 -15.25 "></path></g></g></g><g fill="#252525" fill-opacity="1"><g transform="translate(237.354013, 28.129551)"><g></g></g></g><g fill="#252525" fill-opacity="1"><g transform="translate(245.230553, 28.129551)"><g><path d="M 10.984375 -15.421875 C 12.910156 -15.421875 14.453125 -14.859375 15.609375 -13.734375 C 16.773438 -12.609375 17.359375 -10.941406 17.359375 -8.734375 L 17.359375 0 L 13.78125 0 L 13.78125 -8.28125 C 13.78125 -9.613281 13.46875 -10.613281 12.84375 -11.28125 C 12.21875 -11.957031 11.320312 -12.296875 10.15625 -12.296875 C 8.84375 -12.296875 7.804688 -11.898438 7.046875 -11.109375 C 6.285156 -10.328125 5.90625 -9.191406 5.90625 -7.703125 L 5.90625 0 L 2.34375 0 L 2.34375 -21.1875 L 5.90625 -21.1875 L 5.90625 -13.46875 C 6.5 -14.101562 7.226562 -14.585938 8.09375 -14.921875 C 8.957031 -15.253906 9.921875 -15.421875 10.984375 -15.421875 Z M 10.984375 -15.421875 "></path></g></g></g><g fill="#252525" fill-opacity="1"><g transform="translate(264.779184, 28.129551)"><g><path d="M 8.171875 -15.421875 C 10.410156 -15.421875 12.125 -14.878906 13.3125 -13.796875 C 14.5 -12.722656 15.09375 -11.101562 15.09375 -8.9375 L 15.09375 0 L 11.734375 0 L 11.734375 -1.859375 C 11.296875 -1.191406 10.671875 -0.679688 9.859375 -0.328125 C 9.054688 0.0234375 8.082031 0.203125 6.9375 0.203125 C 5.789062 0.203125 4.789062 0.0078125 3.9375 -0.375 C 3.082031 -0.769531 2.421875 -1.3125 1.953125 -2 C 1.484375 -2.695312 1.25 -3.488281 1.25 -4.375 C 1.25 -5.738281 1.757812 -6.832031 2.78125 -7.65625 C 3.800781 -8.488281 5.40625 -8.90625 7.59375 -8.90625 L 11.53125 -8.90625 L 11.53125 -9.140625 C 11.53125 -10.203125 11.210938 -11.019531 10.578125 -11.59375 C 9.941406 -12.164062 8.992188 -12.453125 7.734375 -12.453125 C 6.878906 -12.453125 6.035156 -12.316406 5.203125 -12.046875 C 4.378906 -11.773438 3.679688 -11.40625 3.109375 -10.9375 L 1.71875 -13.53125 C 2.507812 -14.132812 3.46875 -14.597656 4.59375 -14.921875 C 5.71875 -15.253906 6.910156 -15.421875 8.171875 -15.421875 Z M 7.671875 -2.390625 C 8.566406 -2.390625 9.363281 -2.59375 10.0625 -3 C 10.757812 -3.414062 11.25 -4.003906 11.53125 -4.765625 L 11.53125 -6.53125 L 7.84375 -6.53125 C 5.789062 -6.53125 4.765625 -5.859375 4.765625 -4.515625 C 4.765625 -3.867188 5.019531 -3.351562 5.53125 -2.96875 C 6.050781 -2.582031 6.765625 -2.390625 7.671875 -2.390625 Z M 7.671875 -2.390625 "></path></g></g></g><g fill="#252525" fill-opacity="1"><g transform="translate(282.101873, 28.129551)"><g><path d="M 10.984375 -15.421875 C 12.910156 -15.421875 14.453125 -14.859375 15.609375 -13.734375 C 16.773438 -12.609375 17.359375 -10.941406 17.359375 -8.734375 L 17.359375 0 L 13.78125 0 L 13.78125 -8.28125 C 13.78125 -9.613281 13.46875 -10.613281 12.84375 -11.28125 C 12.21875 -11.957031 11.320312 -12.296875 10.15625 -12.296875 C 8.84375 -12.296875 7.804688 -11.898438 7.046875 -11.109375 C 6.285156 -10.328125 5.90625 -9.191406 5.90625 -7.703125 L 5.90625 0 L 2.34375 0 L 2.34375 -15.25 L 5.734375 -15.25 L 5.734375 -13.28125 C 6.328125 -13.976562 7.070312 -14.507812 7.96875 -14.875 C 8.863281 -15.238281 9.867188 -15.421875 10.984375 -15.421875 Z M 10.984375 -15.421875 "></path></g></g></g><g fill="#252525" fill-opacity="1"><g transform="translate(301.793262, 28.129551)"><g><path d="M 17.265625 -21.1875 L 17.265625 0 L 13.84375 0 L 13.84375 -1.96875 C 13.25 -1.25 12.519531 -0.707031 11.65625 -0.34375 C 10.789062 0.0195312 9.835938 0.203125 8.796875 0.203125 C 7.328125 0.203125 6.003906 -0.117188 4.828125 -0.765625 C 3.660156 -1.410156 2.742188 -2.328125 2.078125 -3.515625 C 1.410156 -4.710938 1.078125 -6.082031 1.078125 -7.625 C 1.078125 -9.164062 1.410156 -10.523438 2.078125 -11.703125 C 2.742188 -12.878906 3.660156 -13.789062 4.828125 -14.4375 C 6.003906 -15.09375 7.328125 -15.421875 8.796875 -15.421875 C 9.804688 -15.421875 10.726562 -15.25 11.5625 -14.90625 C 12.394531 -14.5625 13.109375 -14.046875 13.703125 -13.359375 L 13.703125 -21.1875 Z M 9.21875 -2.859375 C 10.070312 -2.859375 10.84375 -3.050781 11.53125 -3.4375 C 12.21875 -3.832031 12.757812 -4.390625 13.15625 -5.109375 C 13.5625 -5.828125 13.765625 -6.664062 13.765625 -7.625 C 13.765625 -8.570312 13.5625 -9.40625 13.15625 -10.125 C 12.757812 -10.851562 12.21875 -11.410156 11.53125 -11.796875 C 10.84375 -12.191406 10.070312 -12.390625 9.21875 -12.390625 C 8.363281 -12.390625 7.59375 -12.191406 6.90625 -11.796875 C 6.21875 -11.410156 5.675781 -10.851562 5.28125 -10.125 C 4.882812 -9.40625 4.6875 -8.570312 4.6875 -7.625 C 4.6875 -6.664062 4.882812 -5.828125 5.28125 -5.109375 C 5.675781 -4.390625 6.21875 -3.832031 6.90625 -3.4375 C 7.59375 -3.050781 8.363281 -2.859375 9.21875 -2.859375 Z M 9.21875 -2.859375 "></path></g></g></g><g fill="#252525" fill-opacity="1"><g transform="translate(321.398993, 28.129551)"><g><path d="M 7.046875 0.203125 C 5.816406 0.203125 4.609375 0.0390625 3.421875 -0.28125 C 2.242188 -0.601562 1.300781 -1.015625 0.59375 -1.515625 L 1.96875 -4.21875 C 2.65625 -3.769531 3.476562 -3.40625 4.4375 -3.125 C 5.394531 -2.851562 6.34375 -2.71875 7.28125 -2.71875 C 9.414062 -2.71875 10.484375 -3.273438 10.484375 -4.390625 C 10.484375 -4.929688 10.207031 -5.304688 9.65625 -5.515625 C 9.113281 -5.722656 8.242188 -5.921875 7.046875 -6.109375 C 5.796875 -6.296875 4.773438 -6.515625 3.984375 -6.765625 C 3.191406 -7.015625 2.503906 -7.445312 1.921875 -8.0625 C 1.347656 -8.6875 1.0625 -9.546875 1.0625 -10.640625 C 1.0625 -12.085938 1.664062 -13.242188 2.875 -14.109375 C 4.082031 -14.984375 5.710938 -15.421875 7.765625 -15.421875 C 8.804688 -15.421875 9.847656 -15.300781 10.890625 -15.0625 C 11.941406 -14.820312 12.800781 -14.503906 13.46875 -14.109375 L 12.109375 -11.390625 C 10.804688 -12.148438 9.347656 -12.53125 7.734375 -12.53125 C 6.691406 -12.53125 5.894531 -12.375 5.34375 -12.0625 C 4.800781 -11.75 4.53125 -11.332031 4.53125 -10.8125 C 4.53125 -10.25 4.820312 -9.847656 5.40625 -9.609375 C 5.988281 -9.367188 6.890625 -9.144531 8.109375 -8.9375 C 9.328125 -8.75 10.328125 -8.53125 11.109375 -8.28125 C 11.890625 -8.03125 12.554688 -7.609375 13.109375 -7.015625 C 13.671875 -6.429688 13.953125 -5.597656 13.953125 -4.515625 C 13.953125 -3.085938 13.332031 -1.941406 12.09375 -1.078125 C 10.863281 -0.222656 9.179688 0.203125 7.046875 0.203125 Z M 7.046875 0.203125 "></path></g></g></g></g></g></g></g></svg>