<svg xmlns="http://www.w3.org/2000/svg" width="40" height="40" viewBox="0 0 40 40" fill="none"><path d="M17.2164 3.35153C18.6633 1.60943 21.3367 1.60943 22.7836 3.35153C23.7239 4.48359 25.2561 4.93348 26.6591 4.48946C28.8182 3.80618 31.0672 5.25156 31.3426 7.49937C31.5215 8.96006 32.5673 10.1669 33.9876 10.5519C36.1733 11.1444 37.2839 13.5762 36.3003 15.6161C35.6612 16.9416 35.8884 18.5222 36.8752 19.614C38.3936 21.2941 38.0131 23.9404 36.0829 25.1246C34.8285 25.8942 34.1651 27.3468 34.405 28.7987C34.774 31.033 33.0233 33.0535 30.7592 33.0062C29.2879 32.9754 27.9445 33.8387 27.3613 35.1898C26.4638 37.269 23.8986 38.0222 22.0195 36.7583C20.7984 35.937 19.2016 35.937 17.9805 36.7583C16.1014 38.0222 13.5362 37.269 12.6387 35.1898C12.0555 33.8387 10.7121 32.9754 9.24083 33.0062C6.97671 33.0535 5.22597 31.033 5.59503 28.7987C5.83485 27.3468 5.17149 25.8942 3.91714 25.1246C1.98686 23.9404 1.60639 21.2941 3.12484 19.614C4.11156 18.5222 4.33882 16.9416 3.69965 15.6161C2.71606 13.5762 3.82665 11.1444 6.01239 10.5519C7.43274 10.1669 8.47846 8.96006 8.65741 7.49937C8.93278 5.25156 11.1818 3.80618 13.3409 4.48946C14.7439 4.93348 16.2761 4.48359 17.2164 3.35153Z" fill="#FCC300" fill-opacity="0.4"></path><path d="M20.1528 12.0618C20.0864 12.0618 20.0218 12.0807 19.9657 12.1169C18.0674 13.3462 15.9631 13.8971 13.6174 13.7868C13.5234 13.7825 13.4312 13.8161 13.3631 13.8816C13.295 13.9463 13.2562 14.0368 13.2562 14.1307V20.6826C13.2562 22.7257 14.3458 24.6153 16.1139 25.6395L19.9795 27.8775C20.0864 27.9396 20.2191 27.9396 20.326 27.8775L24.1916 25.6395C25.9597 24.6154 27.0493 22.7257 27.0493 20.6826V14.1307C27.0493 14.0368 27.0106 13.9462 26.9424 13.8816C26.8743 13.8161 26.7821 13.7825 26.6881 13.7868C24.3424 13.898 22.2382 13.3462 20.3398 12.1169C20.2837 12.0807 20.2192 12.0618 20.1528 12.0618ZM20.1528 15.1651C21.2916 15.1651 22.2218 16.0953 22.2218 17.2341C22.2218 18.3729 21.2916 19.303 20.1528 19.303C19.014 19.303 18.0838 18.3729 18.0838 17.2341C18.0838 16.0953 19.014 15.1651 20.1528 15.1651ZM17.7389 19.9927H22.5665C23.1337 19.9927 23.601 20.4599 23.601 21.0272V22.0617C23.601 22.6289 23.1337 23.0961 22.5665 23.0961H17.7389C17.1717 23.0961 16.7044 22.6289 16.7044 22.0617V21.0272C16.7044 20.4599 17.1717 19.9927 17.7389 19.9927Z" fill="#252525"></path><path d="M20.1543 10C20.0879 10 20.0233 10.019 19.9672 10.0552C17.5432 11.6224 14.8516 12.325 11.8586 12.1845C11.7638 12.1793 11.6724 12.2138 11.6043 12.2793C11.5354 12.344 11.4974 12.4345 11.4974 12.5293V21.7475C11.4974 23.7906 12.5871 25.6802 14.356 26.7027L19.9819 29.9534C20.0888 30.0155 20.2198 30.0155 20.3267 29.9534L25.9525 26.7018C27.7215 25.6794 28.8111 23.7898 28.8111 21.7467V12.5284V12.5293C28.8111 12.4345 28.7732 12.344 28.7042 12.2793C28.6361 12.2138 28.5447 12.1793 28.4499 12.1845C25.4569 12.3259 22.7654 11.6224 20.3413 10.0552C20.2853 10.019 20.2207 10 20.1543 10ZM20.1543 10.7362C22.5483 12.2354 25.218 12.9362 28.1216 12.8647V21.7474C28.1216 23.5457 27.1639 25.2061 25.6078 26.1052L20.1543 29.2568L14.7008 26.1052C13.1439 25.2052 12.1869 23.5447 12.1869 21.7474V12.8647C15.0903 12.9371 17.7602 12.2353 20.1543 10.7362Z" fill="#252525"></path></svg>