<svg xmlns="http://www.w3.org/2000/svg" width="40" height="40" viewBox="0 0 40 40" fill="none"><path d="M17.2164 3.35153C18.6633 1.60943 21.3367 1.60943 22.7836 3.35153C23.7239 4.48359 25.2561 4.93348 26.6591 4.48946C28.8182 3.80618 31.0672 5.25156 31.3426 7.49937C31.5215 8.96006 32.5673 10.1669 33.9876 10.5519C36.1733 11.1444 37.2839 13.5762 36.3003 15.6161C35.6612 16.9416 35.8884 18.5222 36.8752 19.614C38.3936 21.2941 38.0131 23.9404 36.0829 25.1246C34.8285 25.8942 34.1651 27.3468 34.405 28.7987C34.774 31.033 33.0233 33.0535 30.7592 33.0062C29.2879 32.9754 27.9445 33.8387 27.3613 35.1898C26.4638 37.269 23.8986 38.0222 22.0195 36.7583C20.7984 35.937 19.2016 35.937 17.9805 36.7583C16.1014 38.0222 13.5362 37.269 12.6387 35.1898C12.0555 33.8387 10.7121 32.9754 9.24083 33.0062C6.97671 33.0535 5.22597 31.033 5.59503 28.7987C5.83485 27.3468 5.17149 25.8942 3.91714 25.1246C1.98686 23.9404 1.60639 21.2941 3.12484 19.614C4.11156 18.5222 4.33882 16.9416 3.69965 15.6161C2.71606 13.5762 3.82665 11.1444 6.01239 10.5519C7.43274 10.1669 8.47846 8.96006 8.65741 7.49937C8.93278 5.25156 11.1818 3.80618 13.3409 4.48946C14.7439 4.93348 16.2761 4.48359 17.2164 3.35153Z" fill="#FCC300" fill-opacity="0.4"></path><path d="M27.7457 20.2043C27.8417 20.735 28.3044 21.1366 28.8631 21.1366C29.4889 21.1366 30 20.6254 30 19.9996C30 19.3738 29.4889 18.8626 28.8631 18.8626C28.307 18.8626 27.8434 19.2668 27.7457 19.795H24.9811V17.8759H26.7115C26.8244 17.8759 26.9161 17.7842 26.9161 17.6713V15.8737C27.4468 15.7777 27.8484 15.3149 27.8484 14.7562C27.8484 14.1304 27.3373 13.6192 26.7115 13.6192C26.0857 13.6192 25.5746 14.1304 25.5746 14.7562C25.5746 15.3124 25.9788 15.776 26.5069 15.8737V17.4667H24.9786V16.6863C24.9786 15.765 24.2288 15.0169 23.3093 15.0169H22.529V12.3522H27.7413C27.8373 12.883 28.3 13.2846 28.8587 13.2846C29.4845 13.2846 29.9956 12.7734 29.9956 12.1476C29.9956 11.5218 29.4845 11.0106 28.8587 11.0106C28.3026 11.0106 27.839 11.4148 27.7413 11.943L22.3269 11.9438C22.2139 11.9438 22.1222 12.0355 22.1222 12.1485V15.0177H20.2034V12.2519C20.734 12.156 21.1356 11.6932 21.1356 11.1345C21.1356 10.5112 20.6245 10 19.9987 10C19.373 10 18.8618 10.5112 18.8618 11.137C18.8618 11.6932 19.266 12.1568 19.7941 12.2545V15.0176H17.8752V13.287C17.8752 13.1741 17.7835 13.0824 17.6706 13.0824H15.8731C15.7772 12.5517 15.3145 12.15 14.7558 12.15C14.13 12.15 13.6189 12.6612 13.6189 13.287C13.6189 13.9129 14.13 14.4241 14.7558 14.4241C15.3119 14.4241 15.7755 14.0199 15.8731 13.4917H17.466V15.0201H16.6857C15.7645 15.0201 15.0164 15.7699 15.0164 16.6895V17.4699L12.352 17.469V12.2545C12.8827 12.1586 13.2843 11.6958 13.2843 11.1371C13.2843 10.5113 12.7732 10.0001 12.1474 10.0001C11.5216 10.0001 11.0105 10.5113 11.0105 11.1371C11.0105 11.6933 11.4146 12.1569 11.9428 12.2545V17.6721C11.9428 17.785 12.0345 17.8767 12.1474 17.8767H15.0163V19.7958L12.2517 19.7949C12.1558 19.2642 11.693 18.8626 11.1344 18.8626C10.5111 18.8626 10 19.3737 10 19.9996C10 20.6254 10.5111 21.1366 11.1369 21.1366C11.693 21.1366 12.1566 20.7324 12.2543 20.2042H15.0171V22.1233H13.2868C13.1738 22.1233 13.0821 22.215 13.0821 22.3279V24.1255C12.5515 24.2215 12.1499 24.6843 12.1499 25.243C12.1499 25.8688 12.661 26.38 13.2868 26.38C13.9125 26.38 14.4237 25.8688 14.4237 25.243C14.4237 24.6868 14.0195 24.2232 13.4914 24.1255V22.5325H15.0171V23.3129C15.0171 24.2342 15.7669 24.9823 16.6864 24.9823H17.4667V27.6478L12.2544 27.647C12.1584 27.1163 11.6957 26.7146 11.137 26.7146C10.5113 26.7146 10.0001 27.225 10.0001 27.8516C10.0001 28.4774 10.5113 28.9886 11.137 28.9886C11.6932 28.9886 12.1567 28.5844 12.2544 28.0563H17.6715C17.7844 28.0563 17.8761 27.9645 17.8761 27.8516V24.9824H19.795V27.7455C19.2643 27.8415 18.8627 28.3043 18.8627 28.863C18.8627 29.4888 19.3738 30 19.9996 30C20.6253 30 21.1365 29.4888 21.1365 28.863C21.1365 28.3068 20.7323 27.8432 20.2042 27.7455L20.2034 24.9824H22.1222V26.713C22.1222 26.8259 22.2139 26.9176 22.3269 26.9176H24.1243C24.2203 27.4483 24.683 27.85 25.2417 27.85C25.8675 27.85 26.3786 27.3388 26.3786 26.713C26.3786 26.0871 25.8675 25.576 25.2417 25.576C24.6856 25.576 24.222 25.9801 24.1243 26.5083H22.5315V24.9799H23.3118C24.233 24.9799 24.981 24.2301 24.981 23.3105V22.5301H27.6463V27.7429C27.1157 27.8388 26.714 28.3016 26.714 28.8603C26.714 29.4862 27.2252 29.9974 27.851 29.9974C28.4767 29.9974 28.9879 29.4862 28.9879 28.8603C28.9879 28.3042 28.5837 27.8405 28.0556 27.7429L28.0539 22.3279C28.0539 22.215 27.9622 22.1233 27.8493 22.1233H24.9803V20.2042L27.7457 20.2043ZM28.8605 19.2711C29.263 19.2711 29.5891 19.5971 29.5891 19.9996C29.5891 20.4021 29.263 20.7282 28.8605 20.7282C28.4581 20.7282 28.132 20.4021 28.132 19.9996C28.1329 19.5971 28.4589 19.2711 28.8605 19.2711ZM25.9831 14.7561C25.9831 14.3536 26.3092 14.0275 26.7116 14.0275C27.1141 14.0275 27.4401 14.3536 27.4401 14.7561C27.4401 15.1586 27.1141 15.4846 26.7116 15.4846C26.3109 15.4846 25.9831 15.1586 25.9831 14.7561ZM28.8605 11.4197C29.263 11.4197 29.5891 11.7458 29.5891 12.1483C29.5891 12.5508 29.263 12.8769 28.8605 12.8769C28.4581 12.8769 28.132 12.5508 28.132 12.1483C28.1329 11.7458 28.4589 11.4197 28.8605 11.4197ZM19.2704 11.137C19.2704 10.7345 19.5964 10.4084 19.9989 10.4084C20.4013 10.4084 20.7274 10.7345 20.7274 11.137C20.7274 11.5395 20.4013 11.8655 19.9989 11.8655C19.5964 11.8647 19.2704 11.5386 19.2704 11.137ZM14.7558 14.0146C14.3533 14.0146 14.0273 13.6886 14.0273 13.2861C14.0273 12.8836 14.3533 12.5575 14.7558 12.5575C15.1582 12.5575 15.4843 12.8836 15.4843 13.2861C15.4843 13.6869 15.1582 14.0146 14.7558 14.0146ZM11.4197 11.137C11.4197 10.7345 11.7458 10.4084 12.1482 10.4084C12.5507 10.4084 12.8767 10.7345 12.8767 11.137C12.8767 11.5395 12.5507 11.8655 12.1482 11.8655C11.7458 11.8647 11.4197 11.5386 11.4197 11.137ZM11.137 20.728C10.7345 20.728 10.4085 20.4019 10.4085 19.9994C10.4085 19.5969 10.7345 19.2708 11.137 19.2708C11.5394 19.2708 11.8655 19.5969 11.8655 19.9994C11.8646 20.4019 11.5386 20.728 11.137 20.728ZM14.0144 25.243C14.0144 25.6455 13.6884 25.9715 13.2859 25.9715C12.8834 25.9715 12.5574 25.6455 12.5574 25.243C12.5574 24.8405 12.8834 24.5144 13.2859 24.5144C13.6884 24.5144 14.0144 24.8405 14.0144 25.243ZM11.137 28.5793C10.7345 28.5793 10.4085 28.2532 10.4085 27.8507C10.4085 27.4482 10.7345 27.1222 11.137 27.1222C11.5394 27.1222 11.8655 27.4482 11.8655 27.8507C11.8646 28.2532 11.5386 28.5793 11.137 28.5793ZM20.7272 28.8621C20.7272 29.2646 20.4011 29.5907 19.9987 29.5907C19.5962 29.5907 19.2701 29.2646 19.2701 28.8621C19.2701 28.4596 19.5962 28.1335 19.9987 28.1335C20.4011 28.1344 20.7272 28.4604 20.7272 28.8621ZM25.2417 25.9844C25.6442 25.9844 25.9703 26.3105 25.9703 26.713C25.9703 27.1155 25.6442 27.4415 25.2417 27.4415C24.8393 27.4415 24.5132 27.1155 24.5132 26.713C24.5132 26.3122 24.8393 25.9844 25.2417 25.9844ZM28.5778 28.8621C28.5778 29.2646 28.2518 29.5907 27.8493 29.5907C27.4468 29.5907 27.1208 29.2646 27.1208 28.8621C27.1208 28.4596 27.4468 28.1335 27.8493 28.1335C28.2518 28.1344 28.5778 28.4604 28.5778 28.8621ZM24.5718 23.3122C24.5718 24.0076 24.0064 24.5731 23.311 24.5731H16.6865C15.9911 24.5731 15.4256 24.0076 15.4256 23.3122V16.6871C15.4256 15.9916 15.9911 15.4261 16.6865 15.4261H23.3116C24.007 15.4261 24.5725 15.9916 24.5725 16.6871L24.5718 23.3122ZM23.3874 19.0519C23.581 18.652 23.5895 18.1697 23.3704 17.7502C23.131 17.2917 22.6682 17.0004 22.1622 16.9724C22.0212 16.4638 21.5534 16.0901 21.0015 16.0901C20.5838 16.0901 20.217 16.3033 19.9996 16.6251C19.9563 16.5623 19.9079 16.5011 19.8536 16.4468C19.6252 16.2167 19.3212 16.0901 18.9969 16.0901C18.4535 16.0901 17.9797 16.4595 17.8362 16.9707C17.7471 16.9749 17.6562 16.9902 17.5671 17.0123C17.1867 17.1057 16.8649 17.3452 16.6654 17.6814C16.4157 18.1051 16.3979 18.6163 16.6085 19.0511C16.5516 19.0969 16.4972 19.1487 16.4497 19.2056C16.1975 19.4943 16.082 19.8799 16.1347 20.2603C16.206 20.7927 16.5915 21.2215 17.0975 21.3599C17.0517 21.5943 17.0738 21.8422 17.174 22.0774C17.3149 22.4078 17.5917 22.6557 17.9305 22.7601C17.9305 22.9147 17.961 23.0709 18.0264 23.2212C18.209 23.645 18.6089 23.9082 19.0699 23.9082C19.4571 23.9082 19.7984 23.7129 20.0022 23.4165C20.2085 23.7121 20.5482 23.9082 20.9345 23.9082C21.4108 23.9082 21.815 23.6322 21.9907 23.1864C22.0451 23.0472 22.0714 22.902 22.0714 22.7585C22.3822 22.6608 22.6471 22.4409 22.7973 22.1454C22.9255 21.8932 22.9578 21.6172 22.906 21.3582C23.3365 21.241 23.6838 20.9124 23.8213 20.476C23.9809 19.952 23.8051 19.3907 23.3874 19.0519ZM19.7942 22.7711C19.7942 23.1736 19.4682 23.4997 19.0657 23.4997C18.7133 23.4997 18.49 23.2712 18.3983 23.0581C18.3066 22.8433 18.2939 22.5232 18.5376 22.2667C18.6157 22.1844 18.6114 22.0561 18.5308 21.978C18.4484 21.8999 18.3202 21.9042 18.2421 21.9848C18.1377 22.0935 18.0596 22.2192 18.0078 22.3525C17.8031 22.2761 17.6384 22.1198 17.5493 21.9135C17.393 21.5484 17.5229 21.1263 17.8583 20.9115C17.9543 20.8504 17.9798 20.7247 17.9195 20.6287C17.8583 20.5328 17.7327 20.5073 17.6367 20.5676C17.4712 20.6737 17.3387 20.813 17.2436 20.9743C16.8743 20.8894 16.5915 20.5854 16.5397 20.2025C16.5024 19.9392 16.583 19.6718 16.7596 19.4722C16.9337 19.2718 17.1859 19.1572 17.4508 19.1572C17.5637 19.1572 17.6554 19.0655 17.6554 18.9525C17.6554 18.8396 17.5637 18.7479 17.4508 18.7479C17.281 18.7479 17.1179 18.7802 16.9643 18.8396C16.8293 18.5356 16.8471 18.1747 17.0186 17.8852C17.1621 17.6415 17.3922 17.4699 17.6664 17.4028C17.9407 17.3358 18.2226 17.3791 18.462 17.5268C18.558 17.5854 18.6836 17.5548 18.7422 17.4597C18.8008 17.3638 18.7702 17.2381 18.6751 17.1795C18.5427 17.0988 18.4009 17.0403 18.2557 17.0037C18.3729 16.704 18.6666 16.4925 18.9995 16.4925C19.2126 16.4925 19.4147 16.5775 19.565 16.7294C19.7153 16.8814 19.7976 17.0793 19.7951 17.2899V18.7139C19.6601 18.5746 19.4928 18.4489 19.2933 18.3556C19.1914 18.308 19.0691 18.3513 19.0216 18.4532C18.974 18.5551 19.0173 18.6774 19.1192 18.7249C19.5302 18.916 19.7883 19.3117 19.7934 19.5681V21.2613C19.6372 21.2333 19.4257 21.2486 19.1634 21.3895C19.0632 21.4439 19.0267 21.5679 19.081 21.6655C19.1184 21.7326 19.1872 21.7717 19.261 21.7717C19.2933 21.7717 19.3264 21.7632 19.357 21.7479C19.5964 21.6197 19.7331 21.6519 19.7942 21.685L19.7942 22.7711ZM23.4265 20.3562C23.3289 20.6712 23.0699 20.9065 22.7549 20.9778C22.6615 20.819 22.5291 20.6781 22.3618 20.5736C22.2659 20.5125 22.1402 20.5413 22.0791 20.6347C22.0179 20.7307 22.0468 20.8564 22.1402 20.9175C22.4926 21.1434 22.6165 21.5934 22.4272 21.9653C22.3338 22.1479 22.1776 22.2872 21.9882 22.3585C21.9271 22.204 21.832 22.0604 21.7038 21.9407C21.6214 21.8643 21.4932 21.8694 21.4151 21.9518C21.3387 22.0341 21.3438 22.1623 21.4261 22.2405C21.6936 22.4884 21.6953 22.8162 21.6061 23.0429C21.5195 23.2671 21.2954 23.5057 20.9303 23.5057C20.5278 23.5057 20.2018 23.1771 20.2018 22.7754L20.2009 19.1106C20.3529 18.9824 20.5575 18.8627 20.7706 18.7871C20.8768 18.7497 20.9311 18.6325 20.8946 18.5264C20.8572 18.4202 20.7401 18.3659 20.6339 18.4024C20.482 18.4568 20.3342 18.5264 20.2018 18.6071V17.296C20.2018 16.857 20.5601 16.4978 20.9999 16.4978C21.4389 16.4978 21.798 16.8561 21.798 17.296C21.798 17.459 21.7479 17.6178 21.6545 17.7528C21.5892 17.8462 21.6129 17.9728 21.7046 18.0373C21.798 18.1027 21.9245 18.0789 21.9891 17.9872C22.113 17.8089 22.1869 17.6026 22.2022 17.3869C22.541 17.4259 22.8458 17.6306 23.0088 17.9414C23.272 18.4474 23.0759 19.0758 22.5715 19.3433C22.4713 19.3951 22.4348 19.5191 22.4866 19.6193C22.5384 19.7195 22.6624 19.756 22.7626 19.7042C22.9171 19.6235 23.0495 19.5174 23.1582 19.3951C23.4265 19.6303 23.5352 20.0038 23.4265 20.3562ZM19.0878 20.2993C19.0725 20.4012 18.9859 20.4751 18.8857 20.4751C18.8772 20.4751 18.8662 20.4751 18.8577 20.4726C18.0944 20.3639 17.9144 19.738 17.9076 19.7117C17.877 19.603 17.9424 19.4901 18.0511 19.4621C18.1597 19.4315 18.271 19.4944 18.3007 19.603C18.3032 19.6115 18.3313 19.6948 18.4026 19.7882C18.4569 19.6421 18.5571 19.5011 18.7354 19.412C18.8356 19.3619 18.9595 19.4035 19.0096 19.5054C19.0597 19.6056 19.0181 19.7295 18.9162 19.7797C18.8033 19.8365 18.7702 19.9495 18.7617 20.0361C18.8076 20.0514 18.8577 20.0641 18.912 20.0709C19.0275 20.0845 19.1056 20.1864 19.0878 20.2993ZM21.99 19.7253C21.8923 19.8968 21.7616 20.0208 21.6164 20.1032C21.6427 20.2925 21.6164 20.5379 21.4338 20.7332C21.3922 20.7765 21.3379 20.7986 21.2836 20.7986C21.2335 20.7986 21.1834 20.7816 21.1443 20.7443C21.0619 20.6679 21.0552 20.5396 21.1316 20.4556C21.1969 20.3859 21.2139 20.301 21.2139 20.2272C21.0704 20.2424 20.9269 20.2297 20.7962 20.1949C20.6875 20.1669 20.6221 20.0539 20.6527 19.9452C20.6807 19.8366 20.7936 19.7712 20.9023 19.8017C21.1502 19.8671 21.472 19.8085 21.6325 19.5215C21.6869 19.4239 21.8125 19.3891 21.911 19.4434C22.0095 19.5037 22.0443 19.6277 21.99 19.7253Z" fill="#252525"></path><path fill-rule="evenodd" clip-rule="evenodd" d="M24.5718 23.3122C24.5718 24.0076 24.0064 24.5731 23.311 24.5731H16.6865C15.9911 24.5731 15.4256 24.0076 15.4256 23.3122V16.6871C15.4256 15.9916 15.9911 15.4261 16.6865 15.4261H23.3116C24.007 15.4261 24.5725 15.9916 24.5725 16.6871L24.5718 23.3122ZM23.3704 17.7502C23.5895 18.1697 23.581 18.652 23.3874 19.0519C23.8051 19.3907 23.9809 19.952 23.8213 20.476C23.6838 20.9124 23.3365 21.241 22.906 21.3582C22.9578 21.6172 22.9255 21.8932 22.7973 22.1454C22.6471 22.4409 22.3822 22.6608 22.0714 22.7585C22.0714 22.902 22.0451 23.0472 21.9907 23.1864C21.815 23.6322 21.4108 23.9082 20.9345 23.9082C20.5482 23.9082 20.2085 23.7121 20.0022 23.4165C19.7984 23.7129 19.4571 23.9082 19.0699 23.9082C18.6089 23.9082 18.209 23.645 18.0264 23.2212C17.961 23.0709 17.9305 22.9147 17.9305 22.7601C17.5917 22.6557 17.3149 22.4078 17.174 22.0774C17.0738 21.8422 17.0517 21.5943 17.0975 21.3599C16.5915 21.2215 16.206 20.7927 16.1347 20.2603C16.082 19.8799 16.1975 19.4943 16.4497 19.2056C16.4972 19.1487 16.5516 19.0969 16.6085 19.0511C16.3979 18.6163 16.4157 18.1051 16.6654 17.6814C16.8649 17.3452 17.1867 17.1057 17.5671 17.0123C17.6562 16.9902 17.7471 16.9749 17.8362 16.9707C17.9797 16.4595 18.4535 16.0901 18.9969 16.0901C19.3212 16.0901 19.6252 16.2167 19.8536 16.4468C19.9079 16.5011 19.9563 16.5623 19.9996 16.6251C20.217 16.3033 20.5838 16.0901 21.0015 16.0901C21.5534 16.0901 22.0212 16.4638 22.1622 16.9724C22.6682 17.0004 23.131 17.2917 23.3704 17.7502Z" fill="#252525"></path><path d="M25.2417 25.9844C25.6442 25.9844 25.9703 26.3105 25.9703 26.713C25.9703 27.1155 25.6442 27.4415 25.2417 27.4415C24.8393 27.4415 24.5132 27.1155 24.5132 26.713C24.5132 26.3122 24.8393 25.9844 25.2417 25.9844Z" fill="#252525"></path><path d="M25.9831 14.7561C25.9831 14.3536 26.3092 14.0275 26.7116 14.0275C27.1141 14.0275 27.4401 14.3536 27.4401 14.7561C27.4401 15.1586 27.1141 15.4846 26.7116 15.4846C26.3109 15.4846 25.9831 15.1586 25.9831 14.7561Z" fill="#252525"></path><path d="M14.7558 14.0146C14.3533 14.0146 14.0273 13.6886 14.0273 13.2861C14.0273 12.8836 14.3533 12.5575 14.7558 12.5575C15.1582 12.5575 15.4843 12.8836 15.4843 13.2861C15.4843 13.6869 15.1582 14.0146 14.7558 14.0146Z" fill="#252525"></path><path fill-rule="evenodd" clip-rule="evenodd" d="M23.3704 17.7502C23.5895 18.1697 23.581 18.652 23.3874 19.0519C23.8051 19.3907 23.9809 19.952 23.8213 20.476C23.6838 20.9124 23.3365 21.241 22.906 21.3582C22.9578 21.6172 22.9255 21.8932 22.7973 22.1454C22.6471 22.4409 22.3822 22.6608 22.0714 22.7585C22.0714 22.902 22.0451 23.0472 21.9907 23.1864C21.815 23.6322 21.4108 23.9082 20.9345 23.9082C20.5482 23.9082 20.2085 23.7121 20.0022 23.4165C19.7984 23.7129 19.4571 23.9082 19.0699 23.9082C18.6089 23.9082 18.209 23.645 18.0264 23.2212C17.961 23.0709 17.9305 22.9147 17.9305 22.7601C17.5917 22.6557 17.3149 22.4078 17.174 22.0774C17.0738 21.8422 17.0517 21.5943 17.0975 21.3599C16.5915 21.2215 16.206 20.7927 16.1347 20.2603C16.082 19.8799 16.1975 19.4943 16.4497 19.2056C16.4972 19.1487 16.5516 19.0969 16.6085 19.0511C16.3979 18.6163 16.4157 18.1051 16.6654 17.6814C16.8649 17.3452 17.1867 17.1057 17.5671 17.0123C17.6562 16.9902 17.7471 16.9749 17.8362 16.9707C17.9797 16.4595 18.4535 16.0901 18.9969 16.0901C19.3212 16.0901 19.6252 16.2167 19.8536 16.4468C19.9079 16.5011 19.9563 16.5623 19.9996 16.6251C20.217 16.3033 20.5838 16.0901 21.0015 16.0901C21.5534 16.0901 22.0212 16.4638 22.1622 16.9724C22.6682 17.0004 23.131 17.2917 23.3704 17.7502ZM19.0657 23.4997C19.4682 23.4997 19.7942 23.1736 19.7942 22.7711L19.7942 21.685C19.7331 21.6519 19.5964 21.6197 19.357 21.7479C19.3264 21.7632 19.2933 21.7717 19.261 21.7717C19.1872 21.7717 19.1184 21.7326 19.081 21.6655C19.0267 21.5679 19.0632 21.4439 19.1634 21.3895C19.4257 21.2486 19.6372 21.2333 19.7934 21.2613V19.5681C19.7883 19.3117 19.5302 18.916 19.1192 18.7249C19.0173 18.6774 18.974 18.5551 19.0216 18.4532C19.0691 18.3513 19.1914 18.308 19.2933 18.3556C19.4928 18.4489 19.6601 18.5746 19.7951 18.7139V17.2899C19.7976 17.0793 19.7153 16.8814 19.565 16.7294C19.4147 16.5775 19.2126 16.4925 18.9995 16.4925C18.6666 16.4925 18.3729 16.704 18.2557 17.0037C18.4009 17.0403 18.5427 17.0988 18.6751 17.1795C18.7702 17.2381 18.8008 17.3638 18.7422 17.4597C18.6836 17.5548 18.558 17.5854 18.462 17.5268C18.2226 17.3791 17.9407 17.3358 17.6664 17.4028C17.3922 17.4699 17.1621 17.6415 17.0186 17.8852C16.8471 18.1747 16.8293 18.5356 16.9643 18.8396C17.1179 18.7802 17.281 18.7479 17.4508 18.7479C17.5637 18.7479 17.6554 18.8396 17.6554 18.9525C17.6554 19.0655 17.5637 19.1572 17.4508 19.1572C17.1859 19.1572 16.9337 19.2718 16.7596 19.4722C16.583 19.6718 16.5024 19.9392 16.5397 20.2025C16.5915 20.5854 16.8743 20.8894 17.2436 20.9743C17.3387 20.813 17.4712 20.6737 17.6367 20.5676C17.7327 20.5073 17.8583 20.5328 17.9195 20.6287C17.9798 20.7247 17.9543 20.8504 17.8583 20.9115C17.523 21.1263 17.393 21.5484 17.5493 21.9135C17.6384 22.1198 17.8031 22.2761 18.0078 22.3525C18.0596 22.2192 18.1377 22.0935 18.2421 21.9848C18.3202 21.9042 18.4484 21.8999 18.5308 21.978C18.6114 22.0561 18.6157 22.1844 18.5376 22.2667C18.2939 22.5232 18.3066 22.8433 18.3983 23.0581C18.49 23.2712 18.7133 23.4997 19.0657 23.4997ZM22.7549 20.9778C23.0699 20.9065 23.3289 20.6712 23.4265 20.3562C23.5352 20.0038 23.4265 19.6303 23.1582 19.3951C23.0495 19.5174 22.9171 19.6235 22.7626 19.7042C22.6624 19.756 22.5384 19.7194 22.4866 19.6193C22.4348 19.5191 22.4713 19.3951 22.5715 19.3433C23.0759 19.0758 23.272 18.4474 23.0088 17.9414C22.8458 17.6306 22.541 17.4259 22.2022 17.3869C22.1869 17.6026 22.113 17.8089 21.9891 17.9872C21.9245 18.0789 21.798 18.1027 21.7046 18.0373C21.6129 17.9728 21.5892 17.8462 21.6545 17.7528C21.7479 17.6178 21.798 17.459 21.798 17.296C21.798 16.8561 21.4389 16.4978 20.9999 16.4978C20.5601 16.4978 20.2018 16.857 20.2018 17.296V18.6071C20.3342 18.5264 20.482 18.4568 20.6339 18.4024C20.7401 18.3659 20.8572 18.4202 20.8946 18.5264C20.9311 18.6325 20.8768 18.7497 20.7706 18.7871C20.5575 18.8627 20.3529 18.9824 20.2009 19.1106L20.2018 22.7754C20.2018 23.1771 20.5278 23.5057 20.9303 23.5057C21.2954 23.5057 21.5195 23.2671 21.6061 23.0429C21.6953 22.8162 21.6936 22.4884 21.4261 22.2405C21.3438 22.1623 21.3387 22.0341 21.4151 21.9518C21.4932 21.8694 21.6214 21.8643 21.7038 21.9407C21.832 22.0604 21.9271 22.204 21.9882 22.3585C22.1776 22.2872 22.3338 22.1479 22.4272 21.9653C22.6165 21.5934 22.4926 21.1434 22.1402 20.9175C22.0468 20.8564 22.0179 20.7307 22.0791 20.6347C22.1402 20.5413 22.2659 20.5125 22.3618 20.5736C22.5291 20.6781 22.6615 20.819 22.7549 20.9778ZM18.8857 20.4751C18.9859 20.4751 19.0725 20.4012 19.0878 20.2993C19.1056 20.1864 19.0275 20.0845 18.912 20.0709C18.8577 20.0641 18.8076 20.0514 18.7617 20.0361C18.7702 19.9495 18.8033 19.8365 18.9162 19.7797C19.0181 19.7295 19.0597 19.6056 19.0096 19.5054C18.9595 19.4035 18.8356 19.3619 18.7354 19.412C18.5571 19.5011 18.4569 19.6421 18.4026 19.7882C18.3313 19.6948 18.3032 19.6115 18.3007 19.603C18.271 19.4944 18.1597 19.4315 18.0511 19.4621C17.9424 19.4901 17.877 19.603 17.9076 19.7117C17.9144 19.738 18.0944 20.3639 18.8577 20.4726C18.8662 20.4751 18.8772 20.4751 18.8857 20.4751ZM21.6164 20.1032C21.7616 20.0208 21.8923 19.8968 21.99 19.7253C22.0443 19.6277 22.0095 19.5037 21.911 19.4434C21.8125 19.3891 21.6869 19.4239 21.6325 19.5215C21.472 19.8085 21.1502 19.8671 20.9023 19.8017C20.7936 19.7712 20.6807 19.8366 20.6527 19.9452C20.6221 20.0539 20.6875 20.1669 20.7962 20.1949C20.9269 20.2297 21.0704 20.2424 21.2139 20.2272C21.2139 20.301 21.1969 20.3859 21.1316 20.4556C21.0552 20.5396 21.0619 20.6679 21.1443 20.7443C21.1834 20.7816 21.2335 20.7986 21.2836 20.7986C21.3379 20.7986 21.3922 20.7765 21.4338 20.7332C21.6164 20.5379 21.6427 20.2925 21.6164 20.1032Z" fill="#252525"></path><path d="M11.137 28.5793C10.7345 28.5793 10.4085 28.2532 10.4085 27.8507C10.4085 27.4482 10.7345 27.1222 11.137 27.1222C11.5394 27.1222 11.8655 27.4482 11.8655 27.8507C11.8646 28.2532 11.5386 28.5793 11.137 28.5793Z" fill="#252525"></path></svg>