<svg xmlns="http://www.w3.org/2000/svg" width="40" height="40" viewBox="0 0 40 40" fill="none"><path d="M17.2164 3.35153C18.6633 1.60943 21.3367 1.60943 22.7836 3.35153C23.7239 4.48359 25.2561 4.93348 26.6591 4.48946C28.8182 3.80618 31.0672 5.25156 31.3426 7.49937C31.5215 8.96006 32.5673 10.1669 33.9876 10.5519C36.1733 11.1444 37.2839 13.5762 36.3003 15.6161C35.6612 16.9416 35.8884 18.5222 36.8752 19.614C38.3936 21.2941 38.0131 23.9404 36.0829 25.1246C34.8285 25.8942 34.1651 27.3468 34.405 28.7987C34.774 31.033 33.0233 33.0535 30.7592 33.0062C29.2879 32.9754 27.9445 33.8387 27.3613 35.1898C26.4638 37.269 23.8986 38.0222 22.0195 36.7583C20.7984 35.937 19.2016 35.937 17.9805 36.7583C16.1014 38.0222 13.5362 37.269 12.6387 35.1898C12.0555 33.8387 10.7121 32.9754 9.24083 33.0062C6.97671 33.0535 5.22597 31.033 5.59503 28.7987C5.83485 27.3468 5.17149 25.8942 3.91714 25.1246C1.98686 23.9404 1.60639 21.2941 3.12484 19.614C4.11156 18.5222 4.33882 16.9416 3.69965 15.6161C2.71606 13.5762 3.82665 11.1444 6.01239 10.5519C7.43274 10.1669 8.47846 8.96006 8.65741 7.49937C8.93278 5.25156 11.1818 3.80618 13.3409 4.48946C14.7439 4.93348 16.2761 4.48359 17.2164 3.35153Z" fill="#FCC300" fill-opacity="0.4"></path><path fill-rule="evenodd" clip-rule="evenodd" d="M14.3177 22.1355V12.0837C14.3186 11.739 14.6031 11.4594 14.954 11.4586H26.3721V11.1163C26.3712 11.0306 26.3007 10.9613 26.2134 10.9605H13.9695C13.8831 10.9613 13.8126 11.0306 13.8117 11.1163V22.4357C13.868 22.373 13.9208 22.307 13.9695 22.2378C14.014 22.1743 14.087 22.1371 14.1651 22.1371L14.3177 22.1355ZM13.3348 22.8323V11.1163C13.3348 10.7716 13.6185 10.492 13.9694 10.4912H26.2126C26.5643 10.4912 26.848 10.7716 26.8489 11.1163V11.4585H27.1964C27.5472 11.4594 27.8318 11.7389 27.8318 12.0836V28.497C27.8318 28.8417 27.5472 29.1212 27.1964 29.122H17.1264C16.5204 29.5707 15.8825 29.9756 15.216 30.3327C14.9994 30.4572 15.1421 30.3747 15.216 30.3327L14.9961 30.4588V30.4597C14.9206 30.5025 14.8265 30.5017 14.7518 30.4572L14.5353 30.3327C14.6092 30.3755 14.7518 30.4572 14.5353 30.3327C12.4704 29.1484 11.198 28.4194 11.1651 25.9546V23.4064C11.1651 23.3446 11.1903 23.2844 11.2348 23.2406C11.2793 23.1969 11.3405 23.1722 11.4035 23.1722C11.4203 23.1722 11.4379 23.1738 11.4547 23.1771C11.9533 23.2464 12.4611 23.1945 12.9345 23.0279C13.0747 22.9751 13.209 22.91 13.3357 22.8324L13.3348 22.8323ZM17.6367 28.6528C18.2302 28.0136 18.5642 27.2154 18.5869 25.9775H18.5861C18.5869 25.9693 18.5877 25.9602 18.5877 25.9519V23.4061C18.5877 23.3962 18.5869 23.3863 18.5861 23.3764C18.5777 23.3154 18.5458 23.2593 18.4954 23.2214C18.4459 23.1835 18.3829 23.167 18.32 23.1744C17.8147 23.247 17.2993 23.1966 16.8183 23.0276C16.4054 22.8759 16.0478 22.6062 15.7935 22.2516C15.7506 22.1798 15.6717 22.1361 15.587 22.1361H14.7954V12.0835C14.7963 11.9977 14.8668 11.9284 14.9541 11.9276H27.1965C27.2838 11.9284 27.3543 11.9977 27.3543 12.0835V28.4968C27.3534 28.5817 27.2838 28.651 27.1965 28.6518L17.6367 28.6528ZM16.6479 23.4648C16.1787 23.2933 15.7691 22.9948 15.4652 22.6047H14.2842C13.9804 22.9948 13.5708 23.2933 13.1024 23.4648C12.6349 23.6331 12.1363 23.7007 11.6402 23.6636V25.9529C11.6704 28.1489 12.8548 28.8276 14.7753 29.9295L14.876 29.9872L14.9768 29.9295C16.8931 28.831 18.0758 28.1515 18.1119 25.9685V25.9528V23.6635C17.6158 23.7006 17.1172 23.633 16.6497 23.4648L16.6479 23.4648ZM15.2159 30.3317C15.2537 30.3095 15.273 30.2988 15.2159 30.3317V30.3317ZM14.9759 29.9285C15.0665 29.8765 15.2226 29.7866 14.9759 29.9285V29.9285ZM14.5352 30.3317C14.4773 30.2988 14.4966 30.3095 14.5352 30.3317V30.3317ZM14.7753 29.9277C14.5277 29.7858 14.6846 29.8757 14.7753 29.9277V29.9277ZM13.7991 26.465L14.2792 26.9367H14.2784C14.2851 26.9433 14.2926 26.9499 14.2993 26.9548C14.4479 27.081 14.6695 27.0727 14.8072 26.9367L15.9504 25.8126H15.9512C16.0444 25.7211 16.0444 25.5735 15.9512 25.482C15.8581 25.3904 15.707 25.3904 15.6138 25.482L14.5444 26.5334L14.1373 26.1335H14.1365C14.0929 26.0881 14.0316 26.0617 13.9669 26.0609C13.9023 26.0601 13.841 26.0848 13.7949 26.1293C13.7495 26.1739 13.7244 26.2349 13.7252 26.2984C13.726 26.3611 13.7529 26.4213 13.7999 26.465L13.7991 26.465ZM14.8751 28.5909C16.0217 28.5909 17.0097 27.7943 17.233 26.6892C17.4571 25.5841 16.8553 24.4773 15.7952 24.046C14.735 23.6147 13.5129 23.9792 12.8758 24.9161C12.2387 25.8529 12.3638 27.1022 13.1746 27.8989C13.6254 28.3426 14.2372 28.5917 14.8751 28.5909ZM13.512 27.5683C14.1625 28.2066 15.1815 28.3047 15.9461 27.8025C16.71 27.3003 17.0063 26.3371 16.6537 25.5024C16.3021 24.6678 15.398 24.1945 14.4966 24.3718C13.5951 24.5482 12.9462 25.3259 12.9471 26.2297C12.9462 26.732 13.1502 27.2137 13.512 27.5683ZM26.2151 17.0596C26.3469 17.0596 26.4543 17.1652 26.4543 17.2947C26.4543 17.4241 26.3469 17.5289 26.2151 17.5289H24.5951C24.4633 17.5289 24.3558 17.4241 24.3558 17.2947C24.3558 17.1652 24.4633 17.0596 24.5951 17.0596H26.2151ZM25.4051 16.3875C25.4697 16.3859 25.5327 16.4098 25.5788 16.4535C25.625 16.498 25.651 16.5582 25.651 16.6217C25.651 16.6852 25.625 16.7462 25.5788 16.79C25.5327 16.8345 25.4697 16.8584 25.4051 16.8559H24.5951H24.5959C24.5313 16.8584 24.4683 16.8345 24.4222 16.79C24.376 16.7462 24.35 16.6852 24.35 16.6217C24.35 16.5582 24.376 16.498 24.4222 16.4535C24.4683 16.4098 24.5313 16.3859 24.5959 16.3875H25.4051ZM22.5403 16.155H23.6986C23.8304 16.155 23.937 16.2597 23.937 16.3892V17.5272C23.937 17.6567 23.8304 17.7614 23.6986 17.7614H22.5403C22.4085 17.7614 22.3019 17.6567 22.3019 17.5272V16.3892C22.3019 16.2597 22.4093 16.155 22.5411 16.155H22.5403ZM23.4602 16.6242V17.2938H22.7787V16.6242H23.4602ZM26.215 15.087C26.3468 15.087 26.4542 15.1918 26.4542 15.3212C26.4542 15.4507 26.3468 15.5555 26.215 15.5555H24.595C24.4632 15.5555 24.3558 15.4507 24.3558 15.3212C24.3558 15.1918 24.4632 15.087 24.595 15.087H26.215ZM25.405 14.4149C25.4696 14.4125 25.5326 14.4364 25.5788 14.4809C25.6249 14.5246 25.651 14.5856 25.651 14.6491C25.651 14.7126 25.6249 14.7728 25.5788 14.8174C25.5326 14.8611 25.4696 14.885 25.405 14.8833H24.595H24.5959C24.5312 14.885 24.4683 14.8611 24.4221 14.8174C24.3759 14.7728 24.3499 14.7126 24.3499 14.6491C24.3499 14.5856 24.3759 14.5246 24.4221 14.4809C24.4683 14.4364 24.5312 14.4125 24.5959 14.4149H25.405ZM22.5402 14.1815H23.6986C23.8303 14.1815 23.937 14.2863 23.937 14.4157V15.5538C23.937 15.6833 23.8304 15.788 23.6986 15.788H22.5402C22.4084 15.788 22.3018 15.6833 22.3018 15.5538V14.4157C22.3018 14.2863 22.4093 14.1815 22.5411 14.1815H22.5402ZM23.4602 14.65V15.3196H22.7786V14.65H23.4602ZM19.1591 13.1309C19.9221 13.1318 20.597 13.6175 20.8261 14.3325C21.0553 15.0474 20.7858 15.8259 20.1613 16.2564C20.7934 16.4634 21.3432 16.8601 21.7326 17.392C22.123 17.9231 22.3328 18.5605 22.3328 19.2153C22.3328 19.278 22.3076 19.3374 22.2631 19.3811C22.2178 19.4256 22.1574 19.4503 22.0944 19.4503H16.2239C16.0921 19.4503 15.9855 19.3448 15.9855 19.2153C15.9855 18.5605 16.1953 17.9231 16.5857 17.392C16.9751 16.8609 17.5249 16.4634 18.157 16.2564C17.5316 15.8259 17.2622 15.0474 17.4922 14.3325C17.7213 13.6175 18.3961 13.1309 19.1591 13.1309ZM20.0581 13.9655C20.487 14.3869 20.5542 15.0474 20.2167 15.5431C19.8802 16.0395 19.2338 16.2317 18.6731 16.0041C18.1124 15.7756 17.7934 15.1909 17.9118 14.6054C18.0302 14.0208 18.5523 13.6002 19.1591 13.6002C19.4965 13.5993 19.8197 13.7313 20.0581 13.9655ZM17.252 17.3425C17.9931 16.6143 19.0952 16.3743 20.0798 16.7256C21.0644 17.0769 21.7527 17.956 21.845 18.9812H16.473C16.5284 18.3618 16.8038 17.7812 17.252 17.3425ZM18.8317 27.5427L26.2148 27.5419C26.2794 27.5443 26.3424 27.5204 26.3885 27.4759C26.4347 27.4322 26.4607 27.3712 26.4607 27.3077C26.4607 27.2442 26.4347 27.184 26.3885 27.1394C26.3424 27.0957 26.2794 27.0718 26.2148 27.0735H18.8317C18.7033 27.0776 18.6009 27.1815 18.6009 27.3077C18.6009 27.4347 18.7033 27.5386 18.8317 27.5419V27.5427ZM19.337 25.4505H26.2149C26.3467 25.4505 26.4541 25.3458 26.4541 25.2163C26.4541 25.0868 26.3467 24.9813 26.2149 24.9813H19.3387C19.2069 24.9813 19.1003 25.0868 19.1003 25.2163C19.1003 25.3458 19.2069 25.4505 19.3387 25.4505H19.337ZM19.337 23.3583H26.2149C26.3467 23.3583 26.4541 23.2536 26.4541 23.1241C26.4541 22.9946 26.3467 22.8891 26.2149 22.8891H19.3387C19.2069 22.8891 19.1003 22.9946 19.1003 23.1241C19.1003 23.2536 19.2069 23.3583 19.3387 23.3583H19.337ZM15.9342 21.2661C15.8024 21.2661 15.6958 21.1606 15.6958 21.0311C15.6958 20.9016 15.8024 20.7969 15.9342 20.7969H26.2149C26.3467 20.7969 26.4541 20.9016 26.4541 21.0311C26.4541 21.1606 26.3467 21.2661 26.2149 21.2661H15.9342Z" fill="#252525"></path><path fill-rule="evenodd" clip-rule="evenodd" d="M14.3177 22.1355V12.0837C14.3186 11.739 14.6031 11.4594 14.954 11.4586H26.3721V11.1163C26.3712 11.0306 26.3007 10.9613 26.2134 10.9605H13.9695C13.8831 10.9613 13.8126 11.0306 13.8117 11.1163V22.4357C13.868 22.373 13.9208 22.307 13.9695 22.2378C14.014 22.1743 14.087 22.1371 14.1651 22.1371L14.3177 22.1355ZM13.3348 22.8323V11.1163C13.3348 10.7716 13.6185 10.492 13.9694 10.4912H26.2126C26.5643 10.4912 26.848 10.7716 26.8489 11.1163V11.4585H27.1964C27.5472 11.4594 27.8318 11.7389 27.8318 12.0836V28.497C27.8318 28.8417 27.5472 29.1212 27.1964 29.122H17.1264C16.5204 29.5707 15.8825 29.9756 15.216 30.3327C14.9994 30.4572 15.1421 30.3747 15.216 30.3327L14.9961 30.4588C14.9206 30.5017 14.8265 30.5017 14.7518 30.4572L14.5353 30.3327C14.6092 30.3755 14.7518 30.4572 14.5353 30.3327C12.4704 29.1484 11.198 28.4194 11.1651 25.9546V23.4064C11.1651 23.3446 11.1903 23.2844 11.2348 23.2406C11.2793 23.1969 11.3405 23.1722 11.4035 23.1722C11.4203 23.1722 11.4379 23.1738 11.4547 23.1771C11.9533 23.2464 12.4611 23.1945 12.9345 23.0279C13.0747 22.9751 13.2081 22.9098 13.3348 22.8323ZM17.6367 28.6528C18.2302 28.0136 18.5642 27.2154 18.5869 25.9775C18.5877 25.9693 18.5877 25.9602 18.5877 25.9519V23.4061C18.5877 23.3962 18.5869 23.3863 18.5861 23.3764C18.5777 23.3154 18.5458 23.2593 18.4954 23.2214C18.4459 23.1835 18.3829 23.167 18.32 23.1744C17.8147 23.247 17.2993 23.1966 16.8183 23.0276C16.4054 22.8759 16.0478 22.6062 15.7935 22.2516C15.7506 22.1798 15.6717 22.1361 15.587 22.1361H14.7954V12.0835C14.7963 11.9977 14.8668 11.9284 14.9541 11.9276H27.1965C27.2838 11.9284 27.3543 11.9977 27.3543 12.0835V28.4968C27.3534 28.5817 27.2838 28.651 27.1965 28.6518L17.6367 28.6528ZM16.6479 23.4648C16.1787 23.2933 15.7691 22.9948 15.4652 22.6047H14.2842C13.9804 22.9948 13.5708 23.2933 13.1024 23.4648C12.6349 23.6331 12.1363 23.7007 11.6402 23.6636V25.9529C11.6704 28.1482 12.854 28.8272 14.7734 29.9284L14.7753 29.9295L14.876 29.9872L14.9768 29.9295C16.8931 28.831 18.0758 28.1515 18.1119 25.9685V25.9528V23.6635C17.6158 23.7006 17.1172 23.633 16.6497 23.4648L16.6479 23.4648ZM15.216 30.3327C15.2538 30.3104 15.2731 30.2997 15.216 30.3327V30.3327ZM14.9759 29.9285C15.0665 29.8765 15.2226 29.7866 14.9759 29.9285V29.9285ZM14.5353 30.3327C14.4774 30.2997 14.4967 30.3104 14.5353 30.3327V30.3327ZM14.7753 29.9277C14.5277 29.7858 14.6846 29.8757 14.7753 29.9277V29.9277ZM13.7991 26.465L14.2792 26.9367C14.2859 26.9433 14.2926 26.9499 14.2993 26.9548C14.4479 27.081 14.6695 27.0727 14.8072 26.9367L15.9504 25.8126C16.0436 25.7211 16.0444 25.5735 15.9512 25.482C15.8581 25.3904 15.707 25.3904 15.6138 25.482L14.5444 26.5334L14.1373 26.1335C14.0937 26.0881 14.0316 26.0617 13.9669 26.0609C13.9023 26.0601 13.841 26.0848 13.7949 26.1293C13.7495 26.1739 13.7244 26.2349 13.7252 26.2984C13.726 26.3611 13.7521 26.4212 13.7991 26.465ZM14.8751 28.5909C16.0217 28.5909 17.0097 27.7943 17.233 26.6892C17.4571 25.5841 16.8553 24.4773 15.7952 24.046C14.735 23.6147 13.5129 23.9792 12.8758 24.9161C12.2387 25.8529 12.3638 27.1022 13.1746 27.8989C13.6254 28.3426 14.2372 28.5917 14.8751 28.5909ZM13.512 27.5683C14.1625 28.2066 15.1815 28.3047 15.9461 27.8025C16.71 27.3003 17.0063 26.3371 16.6537 25.5024C16.3021 24.6678 15.398 24.1945 14.4966 24.3718C13.5951 24.5482 12.9462 25.3259 12.9471 26.2297C12.9462 26.732 13.1502 27.2137 13.512 27.5683ZM26.2151 17.0596C26.3469 17.0596 26.4543 17.1652 26.4543 17.2947C26.4543 17.4241 26.3469 17.5289 26.2151 17.5289H24.5951C24.4633 17.5289 24.3558 17.4241 24.3558 17.2947C24.3558 17.1652 24.4633 17.0596 24.5951 17.0596H26.2151ZM25.4051 16.3875C25.4697 16.3859 25.5327 16.4098 25.5788 16.4535C25.625 16.498 25.651 16.5582 25.651 16.6217C25.651 16.6852 25.625 16.7462 25.5788 16.79C25.5327 16.8345 25.4697 16.8584 25.4051 16.8559H24.5951C24.5305 16.8584 24.4683 16.8345 24.4222 16.79C24.376 16.7463 24.35 16.6852 24.35 16.6217C24.35 16.5582 24.376 16.498 24.4222 16.4535C24.4683 16.4098 24.5313 16.3859 24.5959 16.3875H25.4051ZM22.5403 16.155H23.6986C23.8304 16.155 23.937 16.2597 23.937 16.3892V17.5272C23.937 17.6567 23.8304 17.7614 23.6986 17.7614H22.5403C22.4085 17.7614 22.3019 17.6567 22.3019 17.5272V16.3892C22.3019 16.2597 22.4085 16.155 22.5403 16.155ZM23.4602 16.6242V17.2938H22.7787V16.6242H23.4602ZM26.215 15.087C26.3468 15.087 26.4542 15.1918 26.4542 15.3212C26.4542 15.4507 26.3468 15.5555 26.215 15.5555H24.595C24.4632 15.5555 24.3558 15.4507 24.3558 15.3212C24.3558 15.1918 24.4632 15.087 24.595 15.087H26.215ZM25.405 14.4149C25.4696 14.4125 25.5326 14.4364 25.5788 14.4809C25.6249 14.5246 25.651 14.5856 25.651 14.6491C25.651 14.7126 25.6249 14.7728 25.5788 14.8174C25.5326 14.8611 25.4696 14.885 25.405 14.8833H24.595C24.5304 14.885 24.4683 14.8611 24.4221 14.8174C24.3759 14.7728 24.3499 14.7126 24.3499 14.6491C24.3499 14.5856 24.3759 14.5246 24.4221 14.4809C24.4683 14.4364 24.5312 14.4125 24.5959 14.4149H25.405ZM22.5402 14.1815H23.6986C23.8303 14.1815 23.937 14.2863 23.937 14.4157V15.5538C23.937 15.6833 23.8304 15.788 23.6986 15.788H22.5402C22.4084 15.788 22.3018 15.6833 22.3018 15.5538V14.4157C22.3018 14.2863 22.4084 14.1815 22.5402 14.1815ZM23.4602 14.65V15.3196H22.7786V14.65H23.4602ZM19.1591 13.1309C19.9221 13.1318 20.597 13.6175 20.8261 14.3325C21.0553 15.0474 20.7858 15.8259 20.1613 16.2564C20.7934 16.4634 21.3432 16.8601 21.7326 17.392C22.123 17.9231 22.3328 18.5605 22.3328 19.2153C22.3328 19.278 22.3076 19.3374 22.2631 19.3811C22.2178 19.4256 22.1574 19.4503 22.0944 19.4503H16.2239C16.0921 19.4503 15.9855 19.3448 15.9855 19.2153C15.9855 18.5605 16.1953 17.9231 16.5857 17.392C16.9751 16.8609 17.5249 16.4634 18.157 16.2564C17.5316 15.8259 17.2622 15.0474 17.4922 14.3325C17.7213 13.6175 18.3961 13.1309 19.1591 13.1309ZM20.0581 13.9655C20.487 14.3869 20.5542 15.0474 20.2167 15.5431C19.8802 16.0395 19.2338 16.2317 18.6731 16.0041C18.1124 15.7756 17.7934 15.1909 17.9118 14.6054C18.0302 14.0208 18.5523 13.6002 19.1591 13.6002C19.4965 13.5993 19.8197 13.7313 20.0581 13.9655ZM17.252 17.3425C17.9931 16.6143 19.0952 16.3743 20.0798 16.7256C21.0644 17.0769 21.7527 17.956 21.845 18.9812H16.473C16.5284 18.3618 16.8038 17.7812 17.252 17.3425ZM18.8317 27.5427L26.2148 27.5419C26.2794 27.5443 26.3424 27.5204 26.3885 27.4759C26.4347 27.4322 26.4607 27.3712 26.4607 27.3077C26.4607 27.2442 26.4347 27.184 26.3885 27.1394C26.3424 27.0957 26.2794 27.0718 26.2148 27.0735H18.8317C18.7033 27.0776 18.6009 27.1815 18.6009 27.3077C18.6009 27.4347 18.7033 27.5394 18.8317 27.5427ZM19.337 25.4505H26.2149C26.3467 25.4505 26.4541 25.3458 26.4541 25.2163C26.4541 25.0868 26.3467 24.9813 26.2149 24.9813H19.3387C19.2069 24.9813 19.1003 25.0868 19.1003 25.2163C19.1003 25.3458 19.2069 25.4505 19.3387 25.4505H19.337ZM19.337 23.3583H26.2149C26.3467 23.3583 26.4541 23.2536 26.4541 23.1241C26.4541 22.9946 26.3467 22.8891 26.2149 22.8891H19.3387C19.2069 22.8891 19.1003 22.9946 19.1003 23.1241C19.1003 23.2536 19.2069 23.3583 19.3387 23.3583H19.337ZM15.9342 21.2661C15.8024 21.2661 15.6958 21.1606 15.6958 21.0311C15.6958 20.9016 15.8024 20.7969 15.9342 20.7969H26.2149C26.3467 20.7969 26.4541 20.9016 26.4541 21.0311C26.4541 21.1606 26.3467 21.2661 26.2149 21.2661H15.9342Z" fill="#252525"></path><path d="M17.252 17.3425C17.9931 16.6143 19.0952 16.3743 20.0798 16.7256C21.0644 17.0769 21.7527 17.956 21.845 18.9812H16.473C16.5284 18.3618 16.8038 17.7812 17.252 17.3425Z" fill="#252525"></path><path d="M20.0581 13.9655C20.487 14.3869 20.5542 15.0474 20.2167 15.5431C19.8802 16.0395 19.2338 16.2317 18.6731 16.0041C18.1124 15.7756 17.7934 15.1909 17.9118 14.6054C18.0302 14.0208 18.5523 13.6002 19.1591 13.6002C19.4965 13.5993 19.8197 13.7313 20.0581 13.9655Z" fill="#252525"></path><path fill-rule="evenodd" clip-rule="evenodd" d="M16.6479 23.4648C16.1787 23.2933 15.7691 22.9948 15.4652 22.6047H14.2842C13.9804 22.9948 13.5708 23.2933 13.1024 23.4648C12.6349 23.6331 12.1363 23.7007 11.6402 23.6636V25.9529C11.6704 28.1482 12.854 28.8272 14.7734 29.9284L14.7753 29.9295L14.876 29.9872L14.9768 29.9295C16.8931 28.831 18.0758 28.1515 18.1119 25.9685V25.9528V23.6635C17.6158 23.7006 17.1172 23.633 16.6497 23.4648L16.6479 23.4648ZM17.233 26.6892C17.0097 27.7943 16.0217 28.5909 14.8751 28.5909C14.2372 28.5917 13.6254 28.3426 13.1746 27.8989C12.3638 27.1022 12.2387 25.8529 12.8758 24.9161C13.5129 23.9792 14.735 23.6147 15.7952 24.046C16.8553 24.4773 17.4571 25.5841 17.233 26.6892Z" fill="#252525"></path></svg>