<svg xmlns="http://www.w3.org/2000/svg" width="40" height="40" viewBox="0 0 40 40" fill="none"><path d="M17.2164 3.35153C18.6633 1.60943 21.3367 1.60943 22.7836 3.35153C23.7239 4.48359 25.2561 4.93348 26.6591 4.48946C28.8182 3.80618 31.0672 5.25156 31.3426 7.49937C31.5215 8.96006 32.5673 10.1669 33.9876 10.5519C36.1733 11.1444 37.2839 13.5762 36.3003 15.6161C35.6612 16.9416 35.8884 18.5222 36.8752 19.614C38.3936 21.2941 38.0131 23.9404 36.0829 25.1246C34.8285 25.8942 34.1651 27.3468 34.405 28.7987C34.774 31.033 33.0233 33.0535 30.7592 33.0062C29.2879 32.9754 27.9445 33.8387 27.3613 35.1898C26.4638 37.269 23.8986 38.0222 22.0195 36.7583C20.7984 35.937 19.2016 35.937 17.9805 36.7583C16.1014 38.0222 13.5362 37.269 12.6387 35.1898C12.0555 33.8387 10.7121 32.9754 9.24083 33.0062C6.97671 33.0535 5.22597 31.033 5.59503 28.7987C5.83485 27.3468 5.17149 25.8942 3.91714 25.1246C1.98686 23.9404 1.60639 21.2941 3.12484 19.614C4.11156 18.5222 4.33882 16.9416 3.69965 15.6161C2.71606 13.5762 3.82665 11.1444 6.01239 10.5519C7.43274 10.1669 8.47846 8.96006 8.65741 7.49937C8.93278 5.25156 11.1818 3.80618 13.3409 4.48946C14.7439 4.93348 16.2761 4.48359 17.2164 3.35153Z" fill="#FCC300" fill-opacity="0.4"></path><path d="M25.6027 24.2379C24.5402 23.5896 23.4335 23.0932 22.7505 22.8086C23.0224 23.7288 23.1268 24.8165 22.2603 25.6924C22.156 25.7999 22.0137 25.8569 21.8651 25.8569C21.7038 25.8569 21.5489 25.7873 21.4413 25.664C21.0587 25.2244 20.6192 25.0189 20.05 25.0189C20.0026 25.0189 19.9583 25.0221 19.9109 25.0252V27.8016C19.9109 27.9344 19.8034 28.0387 19.6737 28.0387C19.5409 28.0387 19.4366 27.9344 19.4366 27.8016V25.0252C19.386 25.0221 19.3417 25.0189 19.2943 25.0189C18.7283 25.0189 18.2856 25.2244 17.9061 25.664C17.7986 25.7873 17.6436 25.8569 17.4824 25.8569C17.3306 25.8569 17.1915 25.7999 17.0871 25.6924C16.2207 24.8197 16.3251 23.7351 16.5938 22.8117C15.9108 23.0932 14.8009 23.5896 13.7416 24.2379C12.6443 24.9114 11.8791 26.0181 11.6704 27.2925C13.1313 28.3043 14.6049 29.0316 16.0816 29.4743C16.7266 29.6704 17.3717 29.8095 18.0199 29.8949C18.216 29.9234 18.4089 29.9423 18.6049 29.9581C19.3133 30.0182 20.0247 30.0182 20.7362 29.9423C20.9386 29.9265 21.1441 29.9012 21.3465 29.8696C21.9916 29.7747 22.643 29.6293 23.2943 29.4237C24.7489 28.9779 26.2067 28.2664 27.677 27.2925C27.4652 26.0181 26.7031 24.9114 25.6027 24.2379Z" fill="#252525"></path><path d="M14.7435 18.7527V18.7622C14.7435 19.652 15.3276 20.4073 16.1339 20.6669C16.3106 20.9336 16.5144 21.183 16.7483 21.4057C16.8389 21.4921 16.9335 21.5725 17.0298 21.6498V23.0149C16.7855 23.8949 16.7826 24.7112 17.4232 25.3576C17.457 25.3916 17.5147 25.3873 17.5461 25.3512C18.1098 24.7013 18.7762 24.5014 19.4994 24.5507C19.5688 24.5555 19.6145 24.48 19.5755 24.4225C18.978 23.5399 18.3476 22.7526 17.5041 22.5831V21.9779C18.1603 22.3727 18.907 22.5852 19.6859 22.5852C19.7523 22.5852 19.8219 22.5852 19.8914 22.582C20.6028 22.5486 21.2659 22.3365 21.8425 21.9888V22.5829C20.9983 22.7518 20.3676 23.5395 19.7698 24.4225C19.7308 24.48 19.7766 24.5555 19.846 24.5507C20.5691 24.5014 21.2355 24.7013 21.7993 25.3512C21.8306 25.3873 21.8884 25.3916 21.9221 25.3576C22.5615 24.7124 22.5598 23.8979 22.3168 23.0198V21.6515C23.3264 20.8359 23.9737 19.5631 23.9737 18.1298V18.0824C24.4481 18.0349 24.8149 17.6397 24.8149 17.1495C24.8149 16.8839 24.7042 16.6404 24.5271 16.4697C24.9161 15.9321 25.0204 15.1289 25.0489 14.74C26.5319 13.5005 25.5421 11.521 25.4188 11.2838L25.3398 11.1542C25.2829 11.053 25.1659 11.0119 25.0584 11.0498L24.9097 11.1004C24.3405 11.2996 23.9042 11.3945 23.5785 11.3945C23.1294 11.3945 22.9449 11.2184 22.5666 10.9107C21.7982 10.332 20.8211 10 19.8851 10C18.2472 10 17.0203 11.0593 16.6914 11.3723C16.0811 11.5494 15.6258 11.9099 15.338 12.4538C14.7937 13.4789 15.0085 14.906 15.2401 15.8189C15.1573 15.7944 15.0713 15.7772 14.9807 15.7772C14.4716 15.7772 14.0542 16.1914 14.0542 16.7005V17.861C14.0542 18.2879 14.3483 18.6484 14.7435 18.7527ZM23.9738 16.9282L24.1192 16.846C24.1382 16.8365 24.1572 16.8207 24.173 16.8112L23.9738 17.3899V16.9282ZM16.8305 14.6135C16.9064 14.4617 17.093 14.3953 17.2511 14.4775C18.5381 15.11 19.8124 15.4135 21.1373 15.4135C21.7065 15.4135 22.3959 15.3503 22.9397 15.2491C23.1073 15.2175 23.2465 15.2934 23.3065 15.4198C23.5662 15.9975 23.4602 16.77 23.4994 16.8744V18.1298C23.4994 19.4441 22.8938 20.6105 21.9539 21.3362C21.9357 21.3479 21.9185 21.36 21.9042 21.376C21.3273 21.8062 20.6293 22.0723 19.8693 22.1077C18.695 22.1648 17.5781 21.6857 16.7945 20.7638H18.7594C18.8954 20.9852 19.2148 21.1401 19.5911 21.1401C20.0875 21.1401 20.4923 20.865 20.4923 20.5267C20.4923 20.1883 20.0875 19.9132 19.5911 19.9132C19.2148 19.9132 18.8954 20.0682 18.7594 20.2895H16.7483C16.6405 20.2895 16.5355 20.2777 16.4339 20.2564C16.0724 19.658 15.8756 18.9713 15.8756 18.2468V18.0762C15.8923 18.0068 15.904 17.9355 15.904 17.861V16.7005C15.904 16.6935 15.9021 16.6869 15.9019 16.6799C15.9098 16.6677 15.9201 16.6572 15.9262 16.6436C15.9357 16.6278 16.6376 15.0151 16.8305 14.6135ZM15.2179 18.7527C15.2906 18.7335 15.3582 18.703 15.4228 18.6676C15.4637 19.0894 15.5675 19.5004 15.7247 19.8892C15.4157 19.6095 15.2179 19.2098 15.2179 18.7622V18.7527Z" fill="#252525"></path><path d="M16.9297 17.451C17.0446 17.5165 17.1892 17.4757 17.2533 17.363C17.3663 17.1659 17.5698 17.0483 17.7977 17.0483C18.0256 17.0483 18.2297 17.1659 18.3427 17.3631C18.4076 17.4763 18.5515 17.516 18.6664 17.451C18.78 17.3858 18.8192 17.2408 18.7541 17.1272C18.5555 16.7807 18.1982 16.574 17.798 16.574C17.3978 16.5741 17.0402 16.7809 16.842 17.1273C16.7768 17.241 16.816 17.3858 16.9297 17.451Z" fill="#252525"></path><path d="M20.7016 17.451C20.8165 17.5165 20.9611 17.4757 21.0252 17.363C21.1382 17.1659 21.3417 17.0483 21.5696 17.0483C21.7975 17.0483 22.0016 17.1659 22.1147 17.3631C22.1798 17.4763 22.3234 17.516 22.4383 17.451C22.5519 17.3858 22.5911 17.2408 22.526 17.1272C22.3274 16.7807 21.9701 16.574 21.5699 16.574C21.1697 16.5741 20.8121 16.7809 20.6139 17.1273C20.5487 17.241 20.5879 17.3858 20.7016 17.451Z" fill="#252525"></path><path d="M19.6851 19.4379C19.933 19.4379 20.1594 19.3022 20.2758 19.0837C20.3373 18.9681 20.2934 18.8245 20.1779 18.7629C20.0618 18.7013 19.9185 18.7456 19.8571 18.8608C19.8077 18.9536 19.7203 18.9636 19.6851 18.9636C19.6499 18.9636 19.5625 18.9536 19.5131 18.8608C19.4516 18.7455 19.3083 18.7008 19.1922 18.7629C19.0767 18.8245 19.0329 18.9681 19.0943 19.0837C19.2107 19.3022 19.4371 19.4379 19.6851 19.4379Z" fill="#252525"></path></svg>