<svg xmlns="http://www.w3.org/2000/svg" width="40" height="40" viewBox="0 0 40 40" fill="none"><path d="M17.2164 3.35153C18.6633 1.60943 21.3367 1.60943 22.7836 3.35153C23.7239 4.48359 25.2561 4.93348 26.6591 4.48946C28.8182 3.80618 31.0672 5.25156 31.3426 7.49937C31.5215 8.96006 32.5673 10.1669 33.9876 10.5519C36.1733 11.1444 37.2839 13.5762 36.3003 15.6161C35.6612 16.9416 35.8884 18.5222 36.8752 19.614C38.3936 21.2941 38.0131 23.9404 36.0829 25.1246C34.8285 25.8942 34.1651 27.3468 34.405 28.7987C34.774 31.033 33.0233 33.0535 30.7592 33.0062C29.2879 32.9754 27.9445 33.8387 27.3613 35.1898C26.4638 37.269 23.8986 38.0222 22.0195 36.7583C20.7984 35.937 19.2016 35.937 17.9805 36.7583C16.1014 38.0222 13.5362 37.269 12.6387 35.1898C12.0555 33.8387 10.7121 32.9754 9.24083 33.0062C6.97671 33.0535 5.22597 31.033 5.59503 28.7987C5.83485 27.3468 5.17149 25.8942 3.91714 25.1246C1.98686 23.9404 1.60639 21.2941 3.12484 19.614C4.11156 18.5222 4.33882 16.9416 3.69965 15.6161C2.71606 13.5762 3.82665 11.1444 6.01239 10.5519C7.43274 10.1669 8.47846 8.96006 8.65741 7.49937C8.93278 5.25156 11.1818 3.80618 13.3409 4.48946C14.7439 4.93348 16.2761 4.48359 17.2164 3.35153Z" fill="#FCC300" fill-opacity="0.4"></path><path fill-rule="evenodd" clip-rule="evenodd" d="M25.2605 25.1188C25.4309 25.1188 25.5951 25.1428 25.7503 25.1883V24.4674C25.7503 24.3408 25.698 24.2248 25.6146 24.1409C25.5312 24.057 25.4158 24.0044 25.2898 24.0044H25.2295C25.1035 24.0044 24.9881 24.057 24.9047 24.1409C24.8213 24.2248 24.7689 24.3408 24.7689 24.4674V25.1883C24.9251 25.1428 25.0902 25.1188 25.2605 25.1188ZM28.795 13.9652C28.8092 17.3735 28.4302 20.1322 27.6583 22.3644C27.4134 22.2038 27.1516 22.0673 26.8765 21.9576C27.1285 21.209 27.3237 20.4319 27.4737 19.6431C27.786 18.0006 27.9014 16.3027 27.9209 14.7002C27.9218 14.5967 27.8606 14.5075 27.7719 14.4691L19.9125 10.9994C19.8468 10.9708 19.7749 10.9726 19.7146 10.9994L11.8543 14.47C11.7558 14.5128 11.6999 14.6128 11.7061 14.7145C11.7239 16.1081 11.8135 17.583 12.046 19.0346C12.2802 20.4987 12.6609 21.9406 13.2599 23.2548C13.3167 23.3797 13.464 23.435 13.5882 23.3779C13.7124 23.3208 13.7674 23.1727 13.7107 23.0478C13.1312 21.7773 12.763 20.3791 12.5349 18.9562C12.3148 17.5822 12.2252 16.1867 12.203 14.8599L19.813 11.4998L27.423 14.8599C27.3972 16.3847 27.2819 17.9925 26.9855 19.5502C26.8391 20.3193 26.6492 21.075 26.4052 21.8022C26.0396 21.7032 25.6562 21.6505 25.2596 21.6505C22.8292 21.6505 20.8592 23.6321 20.8592 26.075C20.8592 26.7245 20.9985 27.341 21.2479 27.896C20.79 28.1306 20.3108 28.3412 19.813 28.5321C18.7597 28.1298 17.7916 27.6355 16.9264 27.0127C16.0418 26.3757 15.2653 25.6039 14.6157 24.659C14.5377 24.5457 14.3833 24.5171 14.2715 24.5956C14.1588 24.6742 14.1304 24.8294 14.2085 24.9418C14.8935 25.9384 15.709 26.7503 16.6371 27.4187C17.5608 28.0834 18.5963 28.6071 19.7269 29.0318C19.7846 29.0532 19.8458 29.0523 19.9 29.0318C20.4483 28.8257 20.9754 28.5964 21.4777 28.3385C21.6285 28.5937 21.8042 28.8319 22.0021 29.0505C21.3233 29.4083 20.5939 29.7215 19.813 29.9945C13.7852 27.8844 10.7912 23.433 10.8312 13.9658L19.813 10L28.795 13.9652ZM19.459 21.6561L23.1379 17.966L23.137 17.9651L23.1379 17.9642C23.2196 17.8821 23.2595 17.775 23.2595 17.668C23.2595 17.56 23.2187 17.4529 23.1379 17.3709L23.137 17.3718C23.0563 17.2906 22.9498 17.2504 22.8433 17.2504C22.7351 17.2504 22.6268 17.2915 22.5452 17.3726L19.5032 20.3945C19.4012 20.4962 19.2699 20.5461 19.1376 20.5461C19.0063 20.5461 18.8741 20.4962 18.7711 20.398L17.7054 19.3791C17.6202 19.297 17.5093 19.256 17.4002 19.256C17.2946 19.256 17.1908 19.2953 17.1109 19.3756C17.1074 19.3791 17.1038 19.3818 17.1003 19.3854C17.0248 19.4657 16.9867 19.5701 16.9867 19.6736C16.9867 19.7779 17.0248 19.8832 17.1038 19.9617L17.1145 19.9724L18.851 21.6668C18.9344 21.748 19.0436 21.789 19.1527 21.789C19.2583 21.789 19.3639 21.7489 19.4446 21.6686C19.45 21.6641 19.4546 21.6606 19.459 21.6561ZM23.4884 18.3193L23.4893 18.3184L23.4902 18.3193L23.4911 18.3184C23.6686 18.14 23.7564 17.9044 23.7564 17.6689C23.7564 17.4342 23.6686 17.1996 23.492 17.0212L23.4902 17.0194L23.4911 17.0185C23.3136 16.84 23.0794 16.7508 22.846 16.7508C22.6126 16.7508 22.3792 16.84 22.2 17.0176L19.1581 20.0394C19.1536 20.0439 19.1465 20.0465 19.1403 20.0465C19.1314 20.0465 19.1226 20.043 19.1155 20.0367L18.0498 19.0178C17.8687 18.8438 17.6345 18.7555 17.402 18.7555C17.1695 18.7555 16.9388 18.843 16.7613 19.0214C16.756 19.0268 16.7515 19.0321 16.7471 19.0375C16.5794 19.2141 16.4942 19.4443 16.4942 19.6736C16.4933 19.9065 16.5803 20.1394 16.7551 20.3151C16.7604 20.3205 16.7648 20.3249 16.7702 20.3294L18.5076 22.0246C18.6877 22.2004 18.922 22.2896 19.1545 22.2896C19.3879 22.2896 19.6204 22.2013 19.7978 22.0228C19.8023 22.0184 19.8058 22.0139 19.8102 22.0094L23.4884 18.3193ZM13.5989 23.9411C13.6344 24.0062 13.6663 24.066 13.6965 24.1195C13.7187 24.1597 13.7524 24.2186 13.7977 24.2944C13.8669 24.4131 14.0186 24.4523 14.1366 24.3836C14.2547 24.314 14.2937 24.1615 14.2254 24.0428C14.2041 24.0053 14.1721 23.95 14.1304 23.8751C14.0958 23.8126 14.0648 23.7564 14.0373 23.7046C13.9725 23.5833 13.8216 23.5378 13.7009 23.6029C13.5794 23.6681 13.5341 23.8197 13.5989 23.9411ZM26.2473 25.4248C26.3378 25.4873 26.423 25.5578 26.5002 25.6354C26.8179 25.9548 27.014 26.3956 27.014 26.8827C27.014 27.3699 26.8179 27.8106 26.5002 28.1291C26.1826 28.4485 25.7442 28.6457 25.2606 28.6457C24.7761 28.6457 24.3377 28.4485 24.0201 28.1291C23.7024 27.8097 23.5063 27.369 23.5063 26.8827C23.5063 26.3956 23.7024 25.9548 24.0201 25.6354C24.0973 25.5578 24.1825 25.4873 24.273 25.4248V24.4684C24.273 24.2034 24.3804 23.9625 24.5543 23.7885C24.7273 23.6145 24.9669 23.5057 25.2305 23.5057H25.2908C25.5543 23.5057 25.7939 23.6136 25.967 23.7885C26.14 23.9625 26.2483 24.2034 26.2483 24.4684L26.2473 25.4248ZM26.1488 25.9887C25.9217 25.7603 25.6075 25.6185 25.2606 25.6185C25.037 25.6185 24.8276 25.6773 24.6456 25.7799C24.5454 25.8371 24.4531 25.9066 24.3723 25.9887C24.1452 26.2171 24.0041 26.533 24.0041 26.8818C24.0041 27.2307 24.1452 27.5465 24.3723 27.775C24.5995 28.0034 24.9136 28.1452 25.2606 28.1452C25.6075 28.1452 25.9217 28.0034 26.1489 27.775C26.376 27.5465 26.5171 27.2307 26.5171 26.8818C26.5171 26.533 26.376 26.2171 26.1488 25.9887ZM25.2606 30C23.1043 30 21.357 28.2423 21.357 26.0751C21.357 23.907 23.1051 22.1501 25.2606 22.1501C27.4169 22.1501 29.1641 23.9078 29.1641 26.0751C29.1641 28.2431 27.4161 30 25.2606 30ZM25.6191 26.6436V26.532C25.6191 26.3331 25.4576 26.1707 25.2597 26.1707C25.0618 26.1707 24.9003 26.3331 24.9003 26.532V26.6436C24.7859 26.7462 24.7193 26.8934 24.7193 27.0495C24.7193 27.3493 24.9615 27.5929 25.2597 27.5929C25.5578 27.5929 25.8001 27.3493 25.8001 27.0495C25.801 26.8934 25.7335 26.7462 25.6191 26.6436ZM25.3298 26.7917V26.532C25.3298 26.4937 25.2987 26.4625 25.2606 26.4625C25.2224 26.4625 25.1914 26.4937 25.1914 26.532V26.7917L25.1195 26.8416C25.0512 26.8889 25.0103 26.9666 25.0103 27.0495C25.0103 27.1887 25.1222 27.3011 25.2606 27.3011C25.399 27.3011 25.5108 27.1887 25.5108 27.0495C25.5108 26.9666 25.47 26.8889 25.4017 26.8416L25.3298 26.7917Z" fill="#252525"></path></svg>