<svg xmlns="http://www.w3.org/2000/svg" width="40" height="40" viewBox="0 0 40 40" fill="none"><path d="M17.2164 3.35153C18.6633 1.60943 21.3367 1.60943 22.7836 3.35153C23.7239 4.48359 25.2561 4.93348 26.6591 4.48946C28.8182 3.80618 31.0672 5.25156 31.3426 7.49937C31.5215 8.96006 32.5673 10.1669 33.9876 10.5519C36.1733 11.1444 37.2839 13.5762 36.3003 15.6161C35.6612 16.9416 35.8884 18.5222 36.8752 19.614C38.3936 21.2941 38.0131 23.9404 36.0829 25.1246C34.8285 25.8942 34.1651 27.3468 34.405 28.7987C34.774 31.033 33.0233 33.0535 30.7592 33.0062C29.2879 32.9754 27.9445 33.8387 27.3613 35.1898C26.4638 37.269 23.8986 38.0222 22.0195 36.7583C20.7984 35.937 19.2016 35.937 17.9805 36.7583C16.1014 38.0222 13.5362 37.269 12.6387 35.1898C12.0555 33.8387 10.7121 32.9754 9.24083 33.0062C6.97671 33.0535 5.22597 31.033 5.59503 28.7987C5.83485 27.3468 5.17149 25.8942 3.91714 25.1246C1.98686 23.9404 1.60639 21.2941 3.12484 19.614C4.11156 18.5222 4.33882 16.9416 3.69965 15.6161C2.71606 13.5762 3.82665 11.1444 6.01239 10.5519C7.43274 10.1669 8.47846 8.96006 8.65741 7.49937C8.93278 5.25156 11.1818 3.80618 13.3409 4.48946C14.7439 4.93348 16.2761 4.48359 17.2164 3.35153Z" fill="#FCC300" fill-opacity="0.4"></path><path d="M21.3195 15.5231V14.8837C21.3093 14.5578 21.7441 14.3917 21.9564 14.633C22.1264 14.7717 22.0316 15.335 22.0551 15.5223C22.0551 15.6233 22.0136 15.7158 21.9478 15.7824C21.7323 16.0127 21.3093 15.842 21.3195 15.5231ZM27.039 22.1039C27.0366 21.394 25.9571 21.3948 25.954 22.1039C25.9571 22.8138 27.0366 22.8138 27.039 22.1039ZM22.0545 27.3753C22.0514 26.895 21.3228 26.8958 21.3197 27.3753C21.344 27.6903 21.181 28.379 21.6871 28.3822C22.1939 28.3806 22.0302 27.6903 22.0545 27.3753ZM17.5196 15.5231C17.5228 16.0026 18.2505 16.0033 18.2544 15.5231V14.8837C18.2654 14.5648 17.84 14.3932 17.6269 14.6244C17.4436 14.7615 17.5431 15.3311 17.5196 15.5231ZM25.5523 22.3161H22.7291V23.3989H24.5951C24.9374 23.3989 25.2155 23.6771 25.2163 24.0203C25.239 24.1072 25.1583 25.3977 25.2743 25.4212C25.3346 25.5356 26.1799 25.4572 26.2841 25.4792L26.2833 23.0479C25.9206 22.9657 25.633 22.6804 25.5523 22.3161ZM26.7094 18.3029V18.7283H28.5096C28.4782 18.592 28.4782 18.4392 28.5096 18.3029H26.7094ZM20.1338 10.0721C20.1784 10.0274 20.2395 10 20.3061 10H29.7505C29.8844 10.0008 29.9957 10.1097 29.9949 10.2445V12.4549C29.9949 12.5888 29.8837 12.6993 29.7505 12.6993L20.3069 12.7001C19.9489 12.7032 20.0884 12.1626 20.0617 11.9526C20.0931 11.8429 19.9842 10.0768 20.1338 10.0721ZM27.1191 11.4048L27.4982 11.5279C27.4066 11.6814 27.0658 11.9784 27.311 12.1476C27.5484 12.3278 27.7231 11.9125 27.8421 11.7778C27.9596 11.9118 28.1359 12.3278 28.3725 12.1476C28.6177 11.9776 28.2769 11.6822 28.1852 11.5279C28.349 11.4573 28.7994 11.4182 28.7007 11.1369C28.6153 10.8517 28.2291 11.0844 28.0544 11.1236C28.0379 10.9457 28.1398 10.5054 27.8413 10.5124C27.5429 10.5054 27.6455 10.9449 27.6282 11.1236L27.2499 11.0005C26.9898 10.912 26.8567 11.3234 27.1191 11.4048ZM24.3061 11.4048L24.6852 11.5279C24.5943 11.6814 24.2528 11.9784 24.498 12.1476C24.7354 12.3278 24.9108 11.9125 25.0291 11.7778C25.1466 11.9118 25.3229 12.3278 25.5602 12.1476C25.8054 11.9776 25.4647 11.6822 25.373 11.5279C25.5367 11.4573 25.9872 11.4182 25.8885 11.1369C25.8031 10.8517 25.4169 11.0844 25.2422 11.1236C25.2257 10.9457 25.3276 10.5054 25.0291 10.5124C24.7306 10.5054 24.8333 10.9449 24.816 11.1236L24.4377 11.0005C24.1768 10.912 24.0429 11.3234 24.3061 11.4048ZM21.8721 11.5279C21.7804 11.6814 21.4397 11.9784 21.6849 12.1476C21.9222 12.3278 22.0977 11.9125 22.2152 11.7778C22.3327 11.9118 22.509 12.3278 22.7463 12.1476C22.9915 11.9776 22.6507 11.6822 22.5591 11.5279C22.7228 11.4573 23.1733 11.4182 23.0745 11.1369C22.9892 10.8517 22.603 11.0844 22.4283 11.1236C22.4118 10.9457 22.5136 10.5054 22.2152 10.5124C21.9167 10.5054 22.0193 10.9449 22.0021 11.1236C21.8282 11.0844 21.4412 10.8517 21.3558 11.1369C21.2579 11.4182 21.7076 11.4566 21.8721 11.5279ZM29.0698 25.3083C28.57 25.8113 29.3338 26.5753 29.8375 26.0762C30.3326 25.563 29.5821 24.8123 29.0698 25.3083ZM26.7094 25.4791V25.9046H28.5096C28.4782 25.7682 28.4782 25.6155 28.5096 25.4791H26.7094ZM23.5885 15.8904C24.0954 15.8888 23.9324 15.1985 23.9567 14.8836C23.9559 14.7833 23.9168 14.69 23.8486 14.6242C23.634 14.3931 23.2109 14.5647 23.2211 14.8836C23.2454 15.1985 23.0833 15.8873 23.5885 15.8904ZM29.0698 18.1321C28.5739 18.6445 29.3243 19.3951 29.8375 18.8999C30.3365 18.3961 29.5735 17.6322 29.0698 18.1321ZM26.2832 25.9046V28.8051C26.2832 29.4625 25.7458 30 25.0886 30H14.9065C14.2492 30 13.7118 29.4617 13.7118 28.8051V25.9046C14.2422 25.8826 15.1814 26.0879 15.2049 25.2832C15.2269 25.2009 15.1477 23.9003 15.2629 23.8823C15.219 23.7663 17.244 23.847 17.2942 23.8243C17.3913 24.1863 17.718 24.4488 18.1034 24.4488H21.8927C22.2773 24.4488 22.6047 24.1863 22.7019 23.8243C22.7481 23.847 24.7809 23.7655 24.7332 23.8823C24.8483 23.9058 24.7684 25.1962 24.7911 25.2832C24.8162 26.0887 25.7508 25.8818 26.2835 25.9046H26.2832ZM16.7801 27.3752C16.8036 26.6857 15.8886 26.3175 15.4265 26.815C15.1147 27.0704 15.2048 27.658 15.1938 28.0146C15.1711 28.7033 16.0829 29.0723 16.5474 28.5748C16.8592 28.3225 16.7684 27.7294 16.7801 27.3752ZM18.6806 28.5944C18.6876 28.3052 18.2756 28.3946 18.1001 28.3812L18.0993 26.7946C18.0993 26.7586 18.0899 26.7225 18.0711 26.6888C17.9082 26.3974 17.482 26.822 17.2016 26.9458C16.9619 27.079 17.1765 27.4535 17.4131 27.3133L17.6748 27.1621V28.3812H17.3074C17.0308 28.3773 17.0316 28.8106 17.3074 28.8067H18.4683C18.585 28.8074 18.6806 28.7119 18.6806 28.5944ZM20.5803 28.5944C20.5873 28.3052 20.1753 28.3946 19.9998 28.3812L19.999 26.7946C19.999 26.7586 19.9896 26.7225 19.9708 26.6888C19.8086 26.3974 19.3817 26.822 19.1013 26.9458C19.0002 27.0038 18.965 27.1339 19.0237 27.2349C19.1522 27.4684 19.4248 27.2443 19.5744 27.1613V28.3804H19.207C18.9305 28.3765 18.9313 28.8098 19.207 28.8059H20.3672C20.4847 28.8074 20.5803 28.7119 20.5803 28.5944ZM22.2614 26.8299C21.8062 26.3128 20.8701 26.6763 20.8944 27.3752V28.0146C20.8717 28.7041 21.7843 29.0723 22.248 28.574C22.3914 28.4306 22.4807 28.2316 22.4807 28.0146C22.469 27.669 22.5583 27.0814 22.2614 26.8299ZM24.3819 28.5944C24.3889 28.3052 23.9769 28.3946 23.8014 28.3812L23.8006 26.7946C23.8006 26.7586 23.7912 26.7225 23.7724 26.6888C23.6103 26.3974 23.1834 26.822 22.9029 26.9458C22.6632 27.079 22.8778 27.4535 23.1144 27.3133L23.3761 27.1621V28.3812L23.0087 28.382C22.7322 28.3781 22.7329 28.8114 23.0087 28.8074H24.1696C24.2864 28.8074 24.3819 28.7119 24.3819 28.5944ZM10 18.516C10.0031 19.2251 11.0826 19.2259 11.085 18.516C11.0818 17.8061 10.0024 17.8069 10 18.516ZM10 25.6914C10.0031 26.4012 11.0826 26.4012 11.085 25.6914C11.0818 24.9815 10.0031 24.9823 10 25.6914ZM11.4868 25.9045H13.2862V25.479H11.4868C11.5174 25.6146 11.5174 25.7681 11.4868 25.9045ZM13.7117 18.3029V13.3596C13.7117 13.0313 13.8464 12.732 14.0626 12.5157C14.2796 12.2987 14.5781 12.1647 14.9063 12.1647H19.6355C19.5783 12.6309 19.7734 13.119 20.3061 13.1253H26.2612C26.276 13.2021 26.2839 13.2758 26.2839 13.3596V18.3029C25.7528 18.3248 24.8151 18.1196 24.7908 18.9242C24.7688 19.0065 24.848 20.3071 24.7328 20.3252C24.7759 20.4411 22.7525 20.3604 22.7015 20.3832C22.5613 19.8229 22.0051 19.7125 21.4983 19.7595C21.5288 19.2063 21.492 18.5388 21.058 18.1564C20.1822 17.2146 18.4534 17.9111 18.4979 19.2165V19.7595C17.9911 19.7125 17.4349 19.8229 17.2939 20.3832C17.2476 20.3604 15.2156 20.4419 15.2626 20.3252C15.1474 20.3017 15.2273 19.0112 15.2046 18.9242C15.1795 18.1188 14.2451 18.3256 13.7117 18.3029ZM23.0291 16.0833C23.4912 16.5808 24.4039 16.211 24.3819 15.523C24.3718 15.1689 24.4603 14.5781 24.1493 14.3235C23.6863 13.8267 22.7721 14.1934 22.7956 14.8837C22.8066 15.2371 22.7165 15.8318 23.0291 16.0833ZM20.8943 15.523C20.8716 16.2125 21.7842 16.5808 22.2479 16.0825C22.5597 15.8294 22.4689 15.2379 22.4806 14.8837C22.4798 14.4481 22.125 14.09 21.6871 14.0908C21.2499 14.0908 20.8943 14.4465 20.8943 14.8837L20.8943 15.523ZM19.3127 14.8226L19.5743 14.6714V15.8905H19.2069C18.9304 15.8866 18.9312 16.3199 19.2069 16.316H20.3671C20.4846 16.316 20.5802 16.2204 20.5802 16.1028C20.5864 15.8137 20.1767 15.9023 19.9997 15.8897L19.9989 14.3031C19.9989 14.267 19.9895 14.231 19.9707 14.1973C19.8086 13.9059 19.3816 14.3305 19.1012 14.4543C18.8615 14.5883 19.0761 14.9628 19.3127 14.8226ZM17.0943 15.523C17.0708 16.2118 17.9857 16.5816 18.4471 16.0825C18.7597 15.8294 18.6688 15.2379 18.6806 14.8837C18.7025 14.2052 17.8111 13.8299 17.3418 14.3102C17.0128 14.5617 17.1052 15.1611 17.0943 15.523ZM15.5119 14.8226L15.7735 14.6714V15.8905H15.4061C15.1296 15.8866 15.1304 16.3199 15.4061 16.316H16.5671C16.6846 16.316 16.7802 16.2204 16.7802 16.1028C16.7872 15.8137 16.3752 15.903 16.1997 15.8897L16.1989 14.3031C16.1237 13.8205 15.5973 14.3172 15.3012 14.4543C15.0607 14.5883 15.2761 14.9628 15.5119 14.8226ZM13.2862 18.303H11.4868C11.5182 18.4394 11.5182 18.5922 11.4868 18.7285H13.2862V18.303ZM16.3547 27.3753C16.3547 27.275 16.3132 27.1825 16.2466 27.1159C16.0336 26.8848 15.6082 27.0564 15.6192 27.3753V28.0146C15.609 28.3351 16.0328 28.5036 16.2466 28.2748C16.43 28.1369 16.3312 27.5673 16.3547 27.3753ZM13.4994 21.5609C12.7905 21.564 12.7897 22.6429 13.4994 22.646C14.2092 22.6437 14.2084 21.564 13.4994 21.5609ZM24.595 20.8087H22.729V21.8915H25.5515C25.633 21.5272 25.9189 21.2412 26.2831 21.1597V18.7285H25.4112C25.3039 18.7285 25.2154 18.817 25.2154 18.9244C25.1762 19.3396 25.3439 20.3989 25.0337 20.6262C24.9216 20.739 24.7658 20.8087 24.595 20.8087ZM21.2853 20.1842C21.6315 20.1983 22.2966 20.0628 22.3037 20.5956V22.1038C22.2692 22.5285 22.4039 23.7947 22.1822 23.9028C22.1078 23.9772 22.0044 24.0242 21.8916 24.0242L18.1032 24.0235C17.8776 24.0235 17.6911 23.8378 17.6919 23.6121V20.5956C17.6919 20.3699 17.8775 20.1842 18.1032 20.1842C18.4964 20.185 20.8373 20.1842 21.2853 20.1842ZM19.7851 22.6225C19.7851 22.74 19.8807 22.8356 19.9982 22.8356C20.1157 22.8356 20.2113 22.74 20.2113 22.6225V21.5843C20.2152 21.3077 19.782 21.3085 19.7859 21.5843L19.7851 22.6225ZM15.4007 23.3989H17.2667V22.3161H14.4434C14.4027 22.4979 14.3102 22.6601 14.1833 22.787C14.0556 22.914 13.8927 23.0064 13.7117 23.0479V25.4784C13.8214 25.458 14.6588 25.534 14.7215 25.4204C14.8359 25.4024 14.7575 24.1017 14.7795 24.0195C14.7803 23.6771 15.0583 23.3989 15.4007 23.3989ZM21.073 19.2164C21.073 18.6241 20.5881 18.1415 19.9982 18.1415C19.4068 18.1415 18.9234 18.6249 18.9234 19.2164V19.7594H21.073L21.073 19.2164ZM14.4433 21.8906H17.2665V20.8078H15.4005C15.0582 20.8078 14.7801 20.5296 14.7793 20.1864C14.7566 20.0987 14.8373 18.809 14.7213 18.7855C14.661 18.6711 13.8158 18.7495 13.7116 18.7275V21.1579C14.0758 21.2402 14.361 21.5278 14.4433 21.8906Z" fill="#252525"></path></svg>